<svg width="171" height="171" viewBox="0 0 171 171" fill="none" xmlns="http://www.w3.org/2000/svg">
<rect width="171" height="171" fill="#F2F2F2"/>
<path d="M52.4049 77.5369H53.8751C54.4433 77.5369 54.9475 77.6589 55.3879 77.9027C55.8282 78.1465 56.1739 78.4898 56.4248 78.9325C56.6758 79.3729 56.8012 79.889 56.8012 80.4808C56.8012 81.0585 56.6758 81.5639 56.4248 81.9972C56.1739 82.4304 55.8282 82.7678 55.3879 83.0092C54.9475 83.2483 54.4433 83.3679 53.8751 83.3679H52.4049C51.8344 83.3679 51.3278 83.2495 50.885 83.0128C50.4447 82.7737 50.0991 82.4375 49.8481 82.0043C49.5972 81.571 49.4717 81.0644 49.4717 80.4844C49.4717 79.8925 49.5983 79.3764 49.8517 78.9361C50.105 78.4934 50.4518 78.1501 50.8921 77.9062C51.3349 77.66 51.8391 77.5369 52.4049 77.5369ZM52.4049 78.652C52.0593 78.652 51.7598 78.723 51.5065 78.8651C51.2555 79.0047 51.0614 79.2107 50.9241 79.483C50.7868 79.7552 50.7181 80.089 50.7181 80.4844C50.7181 80.8632 50.7868 81.1839 50.9241 81.4467C51.0638 81.7095 51.2603 81.9096 51.5136 82.0469C51.7669 82.1842 52.064 82.2528 52.4049 82.2528H53.8787C54.2219 82.2528 54.5179 82.1842 54.7664 82.0469C55.0174 81.9072 55.2103 81.706 55.3453 81.4432C55.4826 81.178 55.5512 80.8572 55.5512 80.4808C55.5512 80.0902 55.4826 79.7588 55.3453 79.4865C55.2103 79.2143 55.0174 79.0071 54.7664 78.8651C54.5179 78.723 54.2219 78.652 53.8787 78.652H52.4049ZM53.7757 76.5994V84.2983H52.5079V76.5994H53.7757ZM60.3672 84.1065C59.8346 84.1065 59.3729 83.9893 58.9823 83.755C58.5917 83.5206 58.2886 83.1927 58.0732 82.7713C57.8601 82.3499 57.7536 81.8575 57.7536 81.294C57.7536 80.7306 57.8601 80.237 58.0732 79.8132C58.2886 79.3894 58.5917 79.0604 58.9823 78.826C59.3729 78.5916 59.8346 78.4744 60.3672 78.4744C60.8999 78.4744 61.3616 78.5916 61.7522 78.826C62.1428 79.0604 62.4446 79.3894 62.6577 79.8132C62.8732 80.237 62.9809 80.7306 62.9809 81.294C62.9809 81.8575 62.8732 82.3499 62.6577 82.7713C62.4446 83.1927 62.1428 83.5206 61.7522 83.755C61.3616 83.9893 60.8999 84.1065 60.3672 84.1065ZM60.3743 83.0767C60.6632 83.0767 60.9046 82.9974 61.0988 82.8388C61.2929 82.6778 61.4373 82.4624 61.532 82.1925C61.6291 81.9226 61.6776 81.6219 61.6776 81.2905C61.6776 80.9567 61.6291 80.6548 61.532 80.3849C61.4373 80.1127 61.2929 79.8961 61.0988 79.7351C60.9046 79.5741 60.6632 79.4936 60.3743 79.4936C60.0784 79.4936 59.8322 79.5741 59.6357 79.7351C59.4416 79.8961 59.296 80.1127 59.1989 80.3849C59.1042 80.6548 59.0569 80.9567 59.0569 81.2905C59.0569 81.6219 59.1042 81.9226 59.1989 82.1925C59.296 82.4624 59.4416 82.6778 59.6357 82.8388C59.8322 82.9974 60.0784 83.0767 60.3743 83.0767ZM63.4609 79.6001V78.5455H68.2337V79.6001H66.4687V84H65.2258V79.6001H63.4609ZM71.4019 84.1065C70.8692 84.1065 70.4076 83.9893 70.017 83.755C69.6263 83.5206 69.3233 83.1927 69.1079 82.7713C68.8948 82.3499 68.7883 81.8575 68.7883 81.294C68.7883 80.7306 68.8948 80.237 69.1079 79.8132C69.3233 79.3894 69.6263 79.0604 70.017 78.826C70.4076 78.5916 70.8692 78.4744 71.4019 78.4744C71.9346 78.4744 72.3962 78.5916 72.7869 78.826C73.1775 79.0604 73.4793 79.3894 73.6924 79.8132C73.9078 80.237 74.0156 80.7306 74.0156 81.294C74.0156 81.8575 73.9078 82.3499 73.6924 82.7713C73.4793 83.1927 73.1775 83.5206 72.7869 83.755C72.3962 83.9893 71.9346 84.1065 71.4019 84.1065ZM71.409 83.0767C71.6978 83.0767 71.9393 82.9974 72.1335 82.8388C72.3276 82.6778 72.472 82.4624 72.5667 82.1925C72.6638 81.9226 72.7123 81.6219 72.7123 81.2905C72.7123 80.9567 72.6638 80.6548 72.5667 80.3849C72.472 80.1127 72.3276 79.8961 72.1335 79.7351C71.9393 79.5741 71.6978 79.4936 71.409 79.4936C71.1131 79.4936 70.8669 79.5741 70.6704 79.7351C70.4763 79.8961 70.3307 80.1127 70.2336 80.3849C70.1389 80.6548 70.0915 80.9567 70.0915 81.2905C70.0915 81.6219 70.1389 81.9226 70.2336 82.1925C70.3307 82.4624 70.4763 82.6778 70.6704 82.8388C70.8669 82.9974 71.1131 83.0767 71.409 83.0767ZM77.5671 84V78.5455H82.1729V84H80.9336V79.6001H78.7958V84H77.5671ZM85.8641 84.1065C85.3314 84.1065 84.8698 83.9893 84.4792 83.755C84.0885 83.5206 83.7855 83.1927 83.5701 82.7713C83.357 82.3499 83.2505 81.8575 83.2505 81.294C83.2505 80.7306 83.357 80.237 83.5701 79.8132C83.7855 79.3894 84.0885 79.0604 84.4792 78.826C84.8698 78.5916 85.3314 78.4744 85.8641 78.4744C86.3968 78.4744 86.8584 78.5916 87.249 78.826C87.6397 79.0604 87.9415 79.3894 88.1546 79.8132C88.37 80.237 88.4777 80.7306 88.4777 81.294C88.4777 81.8575 88.37 82.3499 88.1546 82.7713C87.9415 83.1927 87.6397 83.5206 87.249 83.755C86.8584 83.9893 86.3968 84.1065 85.8641 84.1065ZM85.8712 83.0767C86.16 83.0767 86.4015 82.9974 86.5956 82.8388C86.7898 82.6778 86.9342 82.4624 87.0289 82.1925C87.1259 81.9226 87.1745 81.6219 87.1745 81.2905C87.1745 80.9567 87.1259 80.6548 87.0289 80.3849C86.9342 80.1127 86.7898 79.8961 86.5956 79.7351C86.4015 79.5741 86.16 79.4936 85.8712 79.4936C85.5753 79.4936 85.3291 79.5741 85.1326 79.7351C84.9384 79.8961 84.7928 80.1127 84.6958 80.3849C84.6011 80.6548 84.5537 80.9567 84.5537 81.2905C84.5537 81.6219 84.6011 81.9226 84.6958 82.1925C84.7928 82.4624 84.9384 82.6778 85.1326 82.8388C85.3291 82.9974 85.5753 83.0767 85.8712 83.0767ZM89.5588 84V78.5455H90.8443V80.7472H91.3131L92.9537 78.5455H94.502L92.4814 81.223L94.5233 84H92.9679L91.4729 81.9439H90.8443V84H89.5588ZM96.8118 84.1101C96.4662 84.1101 96.1548 84.0485 95.8778 83.9254C95.6032 83.8 95.3854 83.6153 95.2244 83.3714C95.0658 83.1276 94.9865 82.8269 94.9865 82.4695C94.9865 82.1617 95.0433 81.9072 95.157 81.706C95.2706 81.5047 95.4257 81.3438 95.6222 81.223C95.8187 81.1023 96.04 81.0111 96.2862 80.9496C96.5348 80.8857 96.7917 80.8395 97.0568 80.8111C97.3764 80.7779 97.6357 80.7483 97.8345 80.7223C98.0334 80.6939 98.1778 80.6513 98.2678 80.5945C98.3601 80.5353 98.4063 80.4441 98.4063 80.321V80.2997C98.4063 80.0322 98.3269 79.825 98.1683 79.6783C98.0097 79.5315 97.7813 79.4581 97.483 79.4581C97.1681 79.4581 96.9183 79.5268 96.7337 79.6641C96.5514 79.8014 96.4283 79.9635 96.3644 80.1506L95.1641 79.9801C95.2588 79.6487 95.415 79.3717 95.6328 79.1491C95.8506 78.9242 96.117 78.7562 96.4318 78.6449C96.7467 78.5312 97.0947 78.4744 97.4759 78.4744C97.7386 78.4744 98.0002 78.5052 98.2607 78.5668C98.5211 78.6283 98.759 78.7301 98.9744 78.8722C99.1899 79.0118 99.3627 79.2024 99.4929 79.4439C99.6255 79.6854 99.6918 79.9872 99.6918 80.3494V84H98.456V83.2507H98.4134C98.3352 83.4022 98.2251 83.5443 98.0831 83.6768C97.9434 83.8071 97.767 83.9124 97.554 83.9929C97.3433 84.071 97.0959 84.1101 96.8118 84.1101ZM97.1456 83.1655C97.4037 83.1655 97.6274 83.1146 97.8168 83.0128C98.0062 82.9086 98.1518 82.7713 98.2536 82.6009C98.3577 82.4304 98.4098 82.2446 98.4098 82.0433V81.4006C98.3696 81.4337 98.3009 81.4645 98.2038 81.4929C98.1091 81.5213 98.0026 81.5462 97.8842 81.5675C97.7659 81.5888 97.6487 81.6077 97.5327 81.6243C97.4167 81.6409 97.3161 81.6551 97.2308 81.6669C97.0391 81.6929 96.8674 81.7356 96.7159 81.7947C96.5644 81.8539 96.4448 81.9368 96.3572 82.0433C96.2697 82.1475 96.2259 82.2824 96.2259 82.4482C96.2259 82.6849 96.3123 82.8636 96.4851 82.9844C96.6579 83.1051 96.8781 83.1655 97.1456 83.1655ZM107.191 80.7401V81.7947H104.286V80.7401H107.191ZM104.684 78.5455V84H103.445V78.5455H104.684ZM108.033 78.5455V84H106.797V78.5455H108.033ZM111.738 84.1065C111.191 84.1065 110.719 83.9929 110.321 83.7656C109.926 83.536 109.622 83.2116 109.409 82.7926C109.196 82.3712 109.089 81.8752 109.089 81.3047C109.089 80.7436 109.196 80.2512 109.409 79.8274C109.624 79.4013 109.925 79.0698 110.311 78.8331C110.697 78.594 111.15 78.4744 111.671 78.4744C112.007 78.4744 112.324 78.5289 112.623 78.6378C112.923 78.7443 113.188 78.91 113.418 79.1349C113.65 79.3598 113.832 79.6463 113.965 79.9943C114.097 80.34 114.164 80.7519 114.164 81.2301V81.6243H109.693V80.7578H112.931C112.929 80.5116 112.876 80.2926 112.772 80.1009C112.668 79.9067 112.522 79.754 112.335 79.6428C112.15 79.5315 111.935 79.4759 111.689 79.4759C111.426 79.4759 111.195 79.5398 110.996 79.6676C110.797 79.7931 110.642 79.9588 110.531 80.1648C110.422 80.3684 110.366 80.5921 110.364 80.8359V81.5923C110.364 81.9096 110.422 82.1818 110.538 82.4091C110.654 82.634 110.816 82.8068 111.025 82.9276C111.233 83.0459 111.477 83.1051 111.756 83.1051C111.943 83.1051 112.112 83.0791 112.264 83.027C112.415 82.9725 112.547 82.8932 112.658 82.7891C112.769 82.6849 112.853 82.5559 112.91 82.402L114.11 82.5369C114.035 82.8542 113.89 83.1312 113.677 83.3679C113.467 83.6023 113.197 83.7846 112.868 83.9148C112.538 84.0426 112.162 84.1065 111.738 84.1065ZM114.787 79.6001V78.5455H119.559V79.6001H117.795V84H116.552V79.6001H114.787ZM121.281 83.0057L121.235 83.3963C121.202 83.6946 121.143 83.9976 121.058 84.3054C120.975 84.6155 120.887 84.9008 120.795 85.1612C120.703 85.4216 120.628 85.6264 120.571 85.7756H119.705C119.738 85.6312 119.783 85.4347 119.84 85.1861C119.899 84.9375 119.956 84.6581 120.01 84.348C120.065 84.0379 120.101 83.723 120.12 83.4034L120.145 83.0057H121.281ZM33.4591 92.7401V93.7947H30.5543V92.7401H33.4591ZM30.952 90.5455V96H29.7127V90.5455H30.952ZM34.3007 90.5455V96H33.0649V90.5455H34.3007ZM37.9706 96.1065C37.4379 96.1065 36.9763 95.9893 36.5856 95.755C36.195 95.5206 35.892 95.1927 35.6766 94.7713C35.4635 94.3499 35.357 93.8575 35.357 93.294C35.357 92.7306 35.4635 92.237 35.6766 91.8132C35.892 91.3894 36.195 91.0604 36.5856 90.826C36.9763 90.5916 37.4379 90.4744 37.9706 90.4744C38.5033 90.4744 38.9649 90.5916 39.3555 90.826C39.7462 91.0604 40.048 91.3894 40.2611 91.8132C40.4765 92.237 40.5842 92.7306 40.5842 93.294C40.5842 93.8575 40.4765 94.3499 40.2611 94.7713C40.048 95.1927 39.7462 95.5206 39.3555 95.755C38.9649 95.9893 38.5033 96.1065 37.9706 96.1065ZM37.9777 95.0767C38.2665 95.0767 38.508 94.9974 38.7021 94.8388C38.8963 94.6778 39.0407 94.4624 39.1354 94.1925C39.2324 93.9226 39.281 93.6219 39.281 93.2905C39.281 92.9567 39.2324 92.6548 39.1354 92.3849C39.0407 92.1127 38.8963 91.8961 38.7021 91.7351C38.508 91.5741 38.2665 91.4936 37.9777 91.4936C37.6818 91.4936 37.4356 91.5741 37.2391 91.7351C37.0449 91.8961 36.8993 92.1127 36.8023 92.3849C36.7076 92.6548 36.6602 92.9567 36.6602 93.2905C36.6602 93.6219 36.7076 93.9226 36.8023 94.1925C36.8993 94.4624 37.0449 94.6778 37.2391 94.8388C37.4356 94.9974 37.6818 95.0767 37.9777 95.0767ZM46.515 96.1065C45.9824 96.1065 45.5207 95.9893 45.1301 95.755C44.7395 95.5206 44.4364 95.1927 44.221 94.7713C44.0079 94.3499 43.9014 93.8575 43.9014 93.294C43.9014 92.7306 44.0079 92.237 44.221 91.8132C44.4364 91.3894 44.7395 91.0604 45.1301 90.826C45.5207 90.5916 45.9824 90.4744 46.515 90.4744C47.0477 90.4744 47.5094 90.5916 47.9 90.826C48.2906 91.0604 48.5925 91.3894 48.8055 91.8132C49.021 92.237 49.1287 92.7306 49.1287 93.294C49.1287 93.8575 49.021 94.3499 48.8055 94.7713C48.5925 95.1927 48.2906 95.5206 47.9 95.755C47.5094 95.9893 47.0477 96.1065 46.515 96.1065ZM46.5221 95.0767C46.811 95.0767 47.0525 94.9974 47.2466 94.8388C47.4407 94.6778 47.5851 94.4624 47.6798 94.1925C47.7769 93.9226 47.8254 93.6219 47.8254 93.2905C47.8254 92.9567 47.7769 92.6548 47.6798 92.3849C47.5851 92.1127 47.4407 91.8961 47.2466 91.7351C47.0525 91.5741 46.811 91.4936 46.5221 91.4936C46.2262 91.4936 45.98 91.5741 45.7835 91.7351C45.5894 91.8961 45.4438 92.1127 45.3467 92.3849C45.252 92.6548 45.2047 92.9567 45.2047 93.2905C45.2047 93.6219 45.252 93.9226 45.3467 94.1925C45.4438 94.4624 45.5894 94.6778 45.7835 94.8388C45.98 94.9974 46.2262 95.0767 46.5221 95.0767ZM53.9562 92.7401V93.7947H51.0514V92.7401H53.9562ZM51.4491 90.5455V96H50.2098V90.5455H51.4491ZM54.7978 90.5455V96H53.562V90.5455H54.7978ZM58.4677 96.1065C57.935 96.1065 57.4734 95.9893 57.0828 95.755C56.6921 95.5206 56.3891 95.1927 56.1737 94.7713C55.9606 94.3499 55.8541 93.8575 55.8541 93.294C55.8541 92.7306 55.9606 92.237 56.1737 91.8132C56.3891 91.3894 56.6921 91.0604 57.0828 90.826C57.4734 90.5916 57.935 90.4744 58.4677 90.4744C59.0004 90.4744 59.462 90.5916 59.8526 90.826C60.2433 91.0604 60.5451 91.3894 60.7582 91.8132C60.9736 92.237 61.0813 92.7306 61.0813 93.294C61.0813 93.8575 60.9736 94.3499 60.7582 94.7713C60.5451 95.1927 60.2433 95.5206 59.8526 95.755C59.462 95.9893 59.0004 96.1065 58.4677 96.1065ZM58.4748 95.0767C58.7636 95.0767 59.0051 94.9974 59.1992 94.8388C59.3934 94.6778 59.5378 94.4624 59.6325 94.1925C59.7295 93.9226 59.7781 93.6219 59.7781 93.2905C59.7781 92.9567 59.7295 92.6548 59.6325 92.3849C59.5378 92.1127 59.3934 91.8961 59.1992 91.7351C59.0051 91.5741 58.7636 91.4936 58.4748 91.4936C58.1789 91.4936 57.9327 91.5741 57.7362 91.7351C57.542 91.8961 57.3964 92.1127 57.2994 92.3849C57.2047 92.6548 57.1573 92.9567 57.1573 93.2905C57.1573 93.6219 57.2047 93.9226 57.2994 94.1925C57.3964 94.4624 57.542 94.6778 57.7362 94.8388C57.9327 94.9974 58.1789 95.0767 58.4748 95.0767ZM67.0122 96.1065C66.4676 96.1065 66.0001 95.987 65.6095 95.7479C65.2212 95.5088 64.9217 95.1785 64.711 94.7571C64.5027 94.3333 64.3985 93.8456 64.3985 93.294C64.3985 92.7401 64.5051 92.2512 64.7181 91.8274C64.9312 91.4013 65.2319 91.0698 65.6201 90.8331C66.0107 90.594 66.4724 90.4744 67.0051 90.4744C67.4478 90.4744 67.8396 90.5561 68.1805 90.7195C68.5238 90.8804 68.7972 91.1089 69.0008 91.4048C69.2044 91.6984 69.3204 92.0417 69.3488 92.4347H68.1201C68.0704 92.1719 67.952 91.9529 67.765 91.7777C67.5803 91.6001 67.3329 91.5114 67.0228 91.5114C66.76 91.5114 66.5292 91.5824 66.3303 91.7244C66.1315 91.8641 65.9764 92.0653 65.8651 92.3281C65.7562 92.5909 65.7018 92.9058 65.7018 93.2727C65.7018 93.6444 65.7562 93.964 65.8651 94.2315C65.974 94.4967 66.1267 94.7015 66.3232 94.8459C66.5221 94.9879 66.7553 95.0589 67.0228 95.0589C67.2122 95.0589 67.3815 95.0234 67.5306 94.9524C67.6821 94.879 67.8088 94.7737 67.9106 94.6364C68.0124 94.4991 68.0822 94.3321 68.1201 94.1357H69.3488C69.318 94.5215 69.2044 94.8636 69.0079 95.1619C68.8114 95.4579 68.5439 95.6899 68.2053 95.858C67.8668 96.0237 67.4691 96.1065 67.0122 96.1065ZM70.3944 96V90.5455H71.6799V92.7472H72.1486L73.7893 90.5455H75.3376L73.317 93.223L75.3589 96H73.8035L72.3084 93.9439H71.6799V96H70.3944ZM78.2324 96.1065C77.6997 96.1065 77.2381 95.9893 76.8474 95.755C76.4568 95.5206 76.1538 95.1927 75.9384 94.7713C75.7253 94.3499 75.6188 93.8575 75.6188 93.294C75.6188 92.7306 75.7253 92.237 75.9384 91.8132C76.1538 91.3894 76.4568 91.0604 76.8474 90.826C77.2381 90.5916 77.6997 90.4744 78.2324 90.4744C78.7651 90.4744 79.2267 90.5916 79.6173 90.826C80.008 91.0604 80.3098 91.3894 80.5229 91.8132C80.7383 92.237 80.846 92.7306 80.846 93.294C80.846 93.8575 80.7383 94.3499 80.5229 94.7713C80.3098 95.1927 80.008 95.5206 79.6173 95.755C79.2267 95.9893 78.7651 96.1065 78.2324 96.1065ZM78.2395 95.0767C78.5283 95.0767 78.7698 94.9974 78.9639 94.8388C79.1581 94.6778 79.3025 94.4624 79.3972 94.1925C79.4942 93.9226 79.5428 93.6219 79.5428 93.2905C79.5428 92.9567 79.4942 92.6548 79.3972 92.3849C79.3025 92.1127 79.1581 91.8961 78.9639 91.7351C78.7698 91.5741 78.5283 91.4936 78.2395 91.4936C77.9436 91.4936 77.6974 91.5741 77.5009 91.7351C77.3067 91.8961 77.1611 92.1127 77.0641 92.3849C76.9694 92.6548 76.922 92.9567 76.922 93.2905C76.922 93.6219 76.9694 93.9226 77.0641 94.1925C77.1611 94.4624 77.3067 94.6778 77.5009 94.8388C77.6974 94.9974 77.9436 95.0767 78.2395 95.0767ZM81.9271 98.0455V90.5455H83.1913V91.4474H83.2659C83.3322 91.3149 83.4257 91.174 83.5464 91.0249C83.6672 90.8733 83.8305 90.7443 84.0365 90.6378C84.2425 90.5289 84.5052 90.4744 84.8248 90.4744C85.2462 90.4744 85.6262 90.5821 85.9648 90.7976C86.3057 91.0107 86.5756 91.3267 86.7744 91.7457C86.9756 92.1624 87.0763 92.6738 87.0763 93.2798C87.0763 93.8788 86.978 94.3878 86.7815 94.8068C86.585 95.2259 86.3175 95.5455 85.979 95.7656C85.6404 95.9858 85.2569 96.0959 84.8284 96.0959C84.5159 96.0959 84.2567 96.0438 84.0507 95.9396C83.8447 95.8355 83.679 95.71 83.5535 95.5632C83.4304 95.4141 83.3345 95.2732 83.2659 95.1406H83.2126V98.0455H81.9271ZM83.1878 93.2727C83.1878 93.6255 83.2375 93.9344 83.3369 94.1996C83.4387 94.4647 83.5843 94.6719 83.7737 94.821C83.9655 94.9678 84.1975 95.0412 84.4697 95.0412C84.7538 95.0412 84.9917 94.9654 85.1835 94.8139C85.3753 94.66 85.5197 94.4505 85.6167 94.1854C85.7162 93.9179 85.7659 93.6136 85.7659 93.2727C85.7659 92.9342 85.7174 92.6335 85.6203 92.3707C85.5232 92.108 85.3788 91.902 85.1871 91.7528C84.9953 91.6037 84.7562 91.5291 84.4697 91.5291C84.1951 91.5291 83.9619 91.6013 83.7702 91.7457C83.5784 91.8902 83.4328 92.0926 83.3334 92.353C83.2363 92.6134 83.1878 92.92 83.1878 93.2727ZM90.5464 96.1065C90.0137 96.1065 89.5521 95.9893 89.1614 95.755C88.7708 95.5206 88.4678 95.1927 88.2523 94.7713C88.0393 94.3499 87.9327 93.8575 87.9327 93.294C87.9327 92.7306 88.0393 92.237 88.2523 91.8132C88.4678 91.3894 88.7708 91.0604 89.1614 90.826C89.5521 90.5916 90.0137 90.4744 90.5464 90.4744C91.079 90.4744 91.5407 90.5916 91.9313 90.826C92.3219 91.0604 92.6238 91.3894 92.8369 91.8132C93.0523 92.237 93.16 92.7306 93.16 93.294C93.16 93.8575 93.0523 94.3499 92.8369 94.7713C92.6238 95.1927 92.3219 95.5206 91.9313 95.755C91.5407 95.9893 91.079 96.1065 90.5464 96.1065ZM90.5535 95.0767C90.8423 95.0767 91.0838 94.9974 91.2779 94.8388C91.472 94.6778 91.6164 94.4624 91.7111 94.1925C91.8082 93.9226 91.8567 93.6219 91.8567 93.2905C91.8567 92.9567 91.8082 92.6548 91.7111 92.3849C91.6164 92.1127 91.472 91.8961 91.2779 91.7351C91.0838 91.5741 90.8423 91.4936 90.5535 91.4936C90.2575 91.4936 90.0113 91.5741 89.8148 91.7351C89.6207 91.8961 89.4751 92.1127 89.378 92.3849C89.2834 92.6548 89.236 92.9567 89.236 93.2905C89.236 93.6219 89.2834 93.9226 89.378 94.1925C89.4751 94.4624 89.6207 94.6778 89.8148 94.8388C90.0113 94.9974 90.2575 95.0767 90.5535 95.0767ZM96.7116 96V90.5455H101.317V96H100.078V91.6001H97.9403V96H96.7116ZM105.009 96.1065C104.476 96.1065 104.014 95.9893 103.624 95.755C103.233 95.5206 102.93 95.1927 102.715 94.7713C102.501 94.3499 102.395 93.8575 102.395 93.294C102.395 92.7306 102.501 92.237 102.715 91.8132C102.93 91.3894 103.233 91.0604 103.624 90.826C104.014 90.5916 104.476 90.4744 105.009 90.4744C105.541 90.4744 106.003 90.5916 106.394 90.826C106.784 91.0604 107.086 91.3894 107.299 91.8132C107.514 92.237 107.622 92.7306 107.622 93.294C107.622 93.8575 107.514 94.3499 107.299 94.7713C107.086 95.1927 106.784 95.5206 106.394 95.755C106.003 95.9893 105.541 96.1065 105.009 96.1065ZM105.016 95.0767C105.304 95.0767 105.546 94.9974 105.74 94.8388C105.934 94.6778 106.079 94.4624 106.173 94.1925C106.27 93.9226 106.319 93.6219 106.319 93.2905C106.319 92.9567 106.27 92.6548 106.173 92.3849C106.079 92.1127 105.934 91.8961 105.74 91.7351C105.546 91.5741 105.304 91.4936 105.016 91.4936C104.72 91.4936 104.474 91.5741 104.277 91.7351C104.083 91.8961 103.937 92.1127 103.84 92.3849C103.746 92.6548 103.698 92.9567 103.698 93.2905C103.698 93.6219 103.746 93.9226 103.84 94.1925C103.937 94.4624 104.083 94.6778 104.277 94.8388C104.474 94.9974 104.72 95.0767 105.016 95.0767ZM111.928 96V91.5895H110.763C110.467 91.5895 110.24 91.6581 110.081 91.7955C109.923 91.9328 109.844 92.1032 109.847 92.3068C109.844 92.5104 109.919 92.6785 110.07 92.8111C110.222 92.9437 110.439 93.0099 110.72 93.0099H112.333V93.9474H110.72C110.285 93.9474 109.908 93.8788 109.591 93.7415C109.274 93.6042 109.03 93.41 108.86 93.1591C108.689 92.9081 108.604 92.6146 108.604 92.2784C108.604 91.928 108.69 91.6238 108.863 91.3658C109.038 91.1054 109.287 90.9041 109.609 90.7621C109.933 90.6177 110.318 90.5455 110.763 90.5455H113.132V96H111.928ZM108.405 96L109.928 93.2017H111.196L109.669 96H108.405ZM114.416 96V90.5455H116.706C117.353 90.5455 117.863 90.6745 118.237 90.9325C118.613 91.1906 118.802 91.5504 118.802 92.0121C118.802 92.3175 118.695 92.5672 118.482 92.7614C118.271 92.9531 117.984 93.0821 117.619 93.1484C117.906 93.1721 118.156 93.2443 118.372 93.3651C118.59 93.4858 118.76 93.6444 118.883 93.8409C119.006 94.0374 119.068 94.2635 119.068 94.5192C119.068 94.8198 118.989 95.0814 118.83 95.304C118.674 95.5241 118.445 95.6958 118.145 95.8189C117.846 95.9396 117.484 96 117.058 96H114.416ZM115.62 94.9879H117.058C117.295 94.9879 117.481 94.9323 117.616 94.821C117.75 94.7074 117.818 94.5535 117.818 94.3594C117.818 94.1345 117.75 93.9581 117.616 93.8303C117.481 93.7 117.295 93.6349 117.058 93.6349H115.62V94.9879ZM115.62 92.804H116.731C116.906 92.804 117.057 92.7791 117.182 92.7294C117.308 92.6773 117.404 92.6051 117.47 92.5128C117.536 92.4181 117.569 92.3056 117.569 92.1754C117.569 91.9884 117.492 91.8416 117.339 91.7351C117.187 91.6286 116.976 91.5753 116.706 91.5753H115.62V92.804ZM121.358 94.2599L123.542 90.5455H124.863V96H123.62V92.282L121.443 96H120.119V90.5455H121.358V94.2599ZM125.562 91.6001V90.5455H130.335V91.6001H128.57V96H127.327V91.6001H125.562ZM133.503 96.1065C132.959 96.1065 132.491 95.987 132.101 95.7479C131.713 95.5088 131.413 95.1785 131.202 94.7571C130.994 94.3333 130.89 93.8456 130.89 93.294C130.89 92.7401 130.996 92.2512 131.209 91.8274C131.423 91.4013 131.723 91.0698 132.111 90.8331C132.502 90.594 132.964 90.4744 133.496 90.4744C133.939 90.4744 134.331 90.5561 134.672 90.7195C135.015 90.8804 135.289 91.1089 135.492 91.4048C135.696 91.6984 135.812 92.0417 135.84 92.4347H134.611C134.562 92.1719 134.443 91.9529 134.256 91.7777C134.072 91.6001 133.824 91.5114 133.514 91.5114C133.251 91.5114 133.021 91.5824 132.822 91.7244C132.623 91.8641 132.468 92.0653 132.356 92.3281C132.248 92.5909 132.193 92.9058 132.193 93.2727C132.193 93.6444 132.248 93.964 132.356 94.2315C132.465 94.4967 132.618 94.7015 132.815 94.8459C133.013 94.9879 133.247 95.0589 133.514 95.0589C133.704 95.0589 133.873 95.0234 134.022 94.9524C134.173 94.879 134.3 94.7737 134.402 94.6364C134.504 94.4991 134.574 94.3321 134.611 94.1357H135.84C135.809 94.5215 135.696 94.8636 135.499 95.1619C135.303 95.4579 135.035 95.6899 134.697 95.858C134.358 96.0237 133.96 96.1065 133.503 96.1065ZM140.11 96V91.5895H138.945C138.649 91.5895 138.422 91.6581 138.264 91.7955C138.105 91.9328 138.027 92.1032 138.029 92.3068C138.027 92.5104 138.101 92.6785 138.253 92.8111C138.404 92.9437 138.621 93.0099 138.903 93.0099H140.515V93.9474H138.903C138.467 93.9474 138.091 93.8788 137.773 93.7415C137.456 93.6042 137.212 93.41 137.042 93.1591C136.872 92.9081 136.786 92.6146 136.786 92.2784C136.786 91.928 136.873 91.6238 137.046 91.3658C137.221 91.1054 137.469 90.9041 137.791 90.7621C138.116 90.6177 138.5 90.5455 138.945 90.5455H141.314V96H140.11ZM136.587 96L138.111 93.2017H139.379L137.852 96H136.587Z" fill="#A6A6A6"/>
</svg>
