<svg width="20" height="20" viewBox="0 0 20 20" fill="none" xmlns="http://www.w3.org/2000/svg">
<path d="M8.49005 0C8.01105 0 7.60158 0.33859 7.50958 0.80859L7.1756 2.52343C6.35484 2.83379 5.59592 3.2674 4.92951 3.81445L3.28498 3.24804C2.83198 3.09204 2.33357 3.27935 2.09357 3.69335L0.585761 6.30663C0.34676 6.72163 0.433741 7.24849 0.794741 7.56249L2.1131 8.70897C2.04454 9.13032 1.99982 9.55927 1.99982 9.99999C1.99982 10.4407 2.04454 10.8697 2.1131 11.291L0.794741 12.4375C0.433741 12.7515 0.34676 13.2784 0.585761 13.6934L2.09357 16.3066C2.33257 16.7216 2.83198 16.9089 3.28498 16.7539L4.92951 16.1875C5.59571 16.7342 6.35522 17.1663 7.1756 17.4766L7.50958 19.1914C7.60158 19.6614 8.01105 20 8.49005 20H11.5096C11.9886 20 12.3981 19.6614 12.4901 19.1914L12.824 17.4766C13.6448 17.1662 14.4037 16.7326 15.0701 16.1855L16.7147 16.7519C17.1677 16.9079 17.6661 16.7216 17.9061 16.3066L19.4139 13.6914C19.6529 13.2764 19.5659 12.7515 19.2049 12.4375L17.8865 11.291C17.9551 10.8697 17.9998 10.4407 17.9998 9.99999C17.9998 9.55927 17.9551 9.13033 17.8865 8.70897L19.2049 7.56249C19.5659 7.24849 19.6529 6.72163 19.4139 6.30663L17.9061 3.69335C17.6671 3.27835 17.1677 3.09108 16.7147 3.24608L15.0701 3.81249C14.4039 3.26578 13.6444 2.83365 12.824 2.52343L12.4901 0.80859C12.3981 0.33859 11.9886 0 11.5096 0H8.49005ZM9.99982 6C12.2088 6 13.9998 7.791 13.9998 10C13.9998 12.209 12.2088 14 9.99982 14C7.79082 14 5.99982 12.209 5.99982 10C5.99982 7.791 7.79082 6 9.99982 6Z" fill="#595959"/>
</svg>
