<svg xmlns="http://www.w3.org/2000/svg" width="32" height="32" fill="none"><g clip-path="url(#32_vk_svg__a)"><path fill="#E0E0E0" d="M0 15.333C0 8.105 0 4.491 2.246 2.246 4.492 0 8.106 0 15.334 0h1.333c7.228 0 10.842 0 13.088 2.246s2.246 5.86 2.246 13.087v1.334c0 7.228 0 10.842-2.246 13.087C27.51 32 23.895 32 16.667 32h-1.333c-7.228 0-10.842 0-13.088-2.245S0 23.895 0 16.667z"></path><path fill="#595959" fill-rule="evenodd" d="M8.134 10H5.8c-.667 0-.8.314-.8.66 0 .618.791 3.683 3.684 7.737 1.929 2.769 4.646 4.27 7.119 4.27 1.483 0 1.667-.334 1.667-.908v-2.092c0-.667.14-.8.61-.8.346 0 .94.173 2.324 1.508 1.583 1.582 1.843 2.292 2.733 2.292h2.334c.667 0 1-.334.808-.992-.21-.655-.966-1.606-1.968-2.734-.544-.643-1.36-1.335-1.607-1.68-.346-.446-.248-.644 0-1.04 0 0 2.843-4.004 3.14-5.363.148-.495 0-.858-.706-.858h-2.334c-.593 0-.867.314-1.015.66 0 0-1.187 2.892-2.868 4.77-.544.545-.792.718-1.088.718-.149 0-.363-.173-.363-.668v-4.622c0-.594-.173-.858-.667-.858h-3.668c-.37 0-.594.275-.594.536 0 .563.841.693.928 2.274v3.437c0 .753-.136.89-.433.89-.791 0-2.716-2.906-3.857-6.23C8.955 10.261 8.73 10 8.134 10" clip-rule="evenodd"></path></g><defs><clipPath id="32_vk_svg__a"><path fill="#fff" d="M0 0h32v32H0z"></path></clipPath></defs></svg>