<svg xmlns="http://www.w3.org/2000/svg" width="32" height="32" fill="none"><g clip-path="url(#32_OK_svg__a)"><path fill="#E0E0E0" d="M0 15.333C0 8.105 0 4.491 2.246 2.246 4.49 0 8.106 0 15.333 0h1.334c7.228 0 10.842 0 13.087 2.246C32 4.49 32 8.106 32 15.333v1.334c0 7.228 0 10.842-2.245 13.087C27.509 32 23.895 32 16.667 32h-1.334c-7.228 0-10.842 0-13.087-2.245C0 27.509 0 23.895 0 16.667z"></path><path fill="#595959" d="M16.032 16.316a4.854 4.854 0 0 0 4.845-4.846 4.854 4.854 0 0 0-4.845-4.845c-2.698 0-4.874 2.176-4.874 4.845 0 2.67 2.176 4.845 4.874 4.845m0-6.848c1.102 0 2.002.9 2.002 2.002 0 1.103-.9 2.002-2.002 2.002s-2.002-.9-2.002-2.002c-.029-1.102.87-2.002 2.002-2.002M17.976 20.29a9.2 9.2 0 0 0 2.814-1.16c.668-.406.87-1.306.435-1.973a1.413 1.413 0 0 0-1.973-.435 6.16 6.16 0 0 1-6.527 0 1.445 1.445 0 0 0-1.973.435c-.378.667-.175 1.538.493 1.944.87.551 1.828.928 2.814 1.16l-2.698 2.698a1.42 1.42 0 0 0 0 2.003c.29.29.638.406 1.015.406.378 0 .726-.145 1.016-.406l2.669-2.67 2.67 2.67c.55.55 1.45.55 2.001 0a1.42 1.42 0 0 0 0-2.003z"></path></g><defs><clipPath id="32_OK_svg__a"><rect width="32" height="32" fill="#fff" rx="6"></rect></clipPath></defs></svg>