<svg width="13" height="13" viewBox="0 0 13 13" fill="none" xmlns="http://www.w3.org/2000/svg">
  <path fill-rule="evenodd" clip-rule="evenodd" d="M6.5 11.5C9.26142 11.5 11.5 9.26142 11.5 6.5C11.5 3.73858 9.26142 1.5 6.5 1.5C3.73858 1.5 1.5 3.73858 1.5 6.5C1.5 9.26142 3.73858 11.5 6.5 11.5ZM6.49988 4.625C6.84506 4.625 7.12488 4.34518 7.12488 4C7.12488 3.65482 6.84506 3.375 6.49988 3.375C6.1547 3.375 5.87488 3.65482 5.87488 4C5.87488 4.34518 6.1547 4.625 6.49988 4.625ZM6.99988 5.56253C6.99988 5.28637 6.77601 5.0625 6.49985 5.0625H5.65614C5.43177 5.0625 5.24988 5.24439 5.24988 5.46877C5.24988 5.69314 5.43177 5.87503 5.65614 5.87503H5.91334C5.96113 5.87503 5.99988 5.91377 5.99988 5.96157V8.23299C5.99988 8.27692 5.96426 8.31253 5.92033 8.31253H5.56236C5.32075 8.31253 5.12488 8.5084 5.12488 8.75002C5.12488 8.99163 5.32075 9.1875 5.56236 9.1875H7.43736C7.67898 9.1875 7.87485 8.99163 7.87485 8.75002C7.87485 8.5084 7.67898 8.31253 7.43736 8.31253H7.07857C7.03511 8.31253 6.99988 8.2773 6.99988 8.23384V5.56253Z" fill="white"/>
</svg>
