<svg xmlns="http://www.w3.org/2000/svg" width="24" height="24" fill="none"><path fill="currentColor" fill-rule="evenodd" d="M12 1a.917.917 0 0 0-.917.917V8.68a.458.458 0 0 1-.782.324L5.518 4.222a.917.917 0 1 0-1.296 1.296l4.782 4.783a.458.458 0 0 1-.324.782H1.917a.917.917 0 0 0 0 1.834H8.68c.409 0 .613.493.325.782l-4.783 4.783a.917.917 0 0 0 1.296 1.296l4.783-4.783a.458.458 0 0 1 .782.325v6.763a.917.917 0 1 0 1.834 0V15.32c0-.409.493-.613.782-.325l4.783 4.783a.917.917 0 0 0 1.296-1.296l-4.783-4.783a.458.458 0 0 1 .325-.782h6.763a.917.917 0 1 0 0-1.834H15.32a.458.458 0 0 1-.325-.782l4.783-4.783a.917.917 0 0 0-1.296-1.296l-4.783 4.783a.458.458 0 0 1-.782-.325V1.917A.917.917 0 0 0 12 1" clip-rule="evenodd" opacity="0.5"></path></svg>