<svg width="14" height="14" viewBox="0 0 14 14" fill="none" xmlns="http://www.w3.org/2000/svg">
<path fill-rule="evenodd" clip-rule="evenodd" d="M10 6.00003C10 7.06089 9.57858 8.07831 8.82843 8.82845C8.07828 9.5786 7.06087 10 6 10C4.93914 10 3.92172 9.5786 3.17158 8.82845C2.42143 8.07831 2 7.06089 2 6.00003C2 4.93916 2.42143 3.92174 3.17158 3.1716C3.92172 2.42145 4.93914 2.00003 6 2.00003C7.06087 2.00003 8.07828 2.42145 8.82843 3.1716C9.57858 3.92174 10 4.93916 10 6.00003ZM10.075 11.489C9.729 11.144 9.189 11.107 8.755 11.331C7.4832 11.9882 6.01833 12.169 4.62491 11.8408C3.23148 11.5125 2.00133 10.6969 1.15658 9.54117C0.311824 8.38541 -0.0918566 6.96571 0.0184264 5.5384C0.128709 4.11109 0.745687 2.77025 1.75796 1.75798C2.77022 0.74571 4.11107 0.128732 5.53838 0.0184493C6.96568 -0.0918337 8.38539 0.311847 9.54114 1.1566C10.6969 2.00135 11.5125 3.2315 11.8408 4.62493C12.169 6.01836 11.9882 7.48322 11.331 8.75503C11.107 9.18903 11.144 9.72903 11.489 10.075L13.707 12.293C13.8892 12.4816 13.99 12.7342 13.9877 12.9964C13.9854 13.2586 13.8802 13.5094 13.6948 13.6948C13.5094 13.8803 13.2586 13.9854 12.9964 13.9877C12.7342 13.99 12.4816 13.8892 12.293 13.707L10.075 11.489Z" fill="#ABABAB"/>
</svg>
