<svg xmlns="http://www.w3.org/2000/svg" width="13" height="13" fill="none"><path fill="#fff" d="M6.31 12.5c-2.81-.04-5.052-2.123-5.291-4.919-.23-2.667 1.68-5.1 4.393-5.603.134-.025.328.019.336-.2.009-.252-.198-.161-.324-.178-.473-.054-.315-.415-.34-.683S5.181.499 5.464.5h1.736c.28 0 .41.145.38.42-.027.254.13.59-.3.677-.135.026-.381-.096-.366.177.014.255.267.182.42.211 2.623.489 4.573 3.016 4.304 5.59-.299 2.869-2.567 4.963-5.329 4.924M1.97 7.201c0 .86.256 1.702.737 2.417a4.36 4.36 0 0 0 1.962 1.601 4.38 4.38 0 0 0 4.76-.95 4.331 4.331 0 0 0 .934-4.744 4.35 4.35 0 0 0-1.617-1.948 4.4 4.4 0 0 0-2.43-.723 4.4 4.4 0 0 0-3.07 1.285A4.35 4.35 0 0 0 1.97 7.202"></path><path fill="#fff" d="M6.496 5.288c0 .487.018.976-.007 1.46-.013.266.09.383.332.47.931.339 1.85.706 2.782 1.042.244.089.321.158.193.424a3.68 3.68 0 0 1-1.776 1.722 3.7 3.7 0 0 1-2.47.211c-1.781-.478-2.883-2.09-2.699-3.95C3.02 4.972 4.455 3.59 6.17 3.449c.297-.025.357.072.343.335-.017.5-.005 1.003-.005 1.508z"></path></svg>