<svg width="19" height="20" viewBox="0 0 19 20" fill="none" xmlns="http://www.w3.org/2000/svg">
<path d="M9.5 0C4.26167 0 0 3.2493 0 7.24321C0 12.1998 8.50157 19.4763 8.86353 19.7837C9.20351 20.0724 9.7971 20.0719 10.1365 19.7837C10.4984 19.4763 19 12.1998 19 7.24321C18.9999 3.2493 14.7383 0 9.5 0ZM9.5 10.8875C6.86447 10.8875 4.72036 9.25267 4.72036 7.24321C4.72036 5.23376 6.86452 3.59899 9.5 3.59899C12.1355 3.59899 14.2796 5.2338 14.2796 7.24325C14.2796 9.25271 12.1355 10.8875 9.5 10.8875Z" fill="#595959"/>
</svg>
