<svg xmlns="http://www.w3.org/2000/svg" width="32" height="32" fill="none"><g clip-path="url(#32_youtube_svg__a)"><path fill="#E0E0E0" d="M0 15.333C0 8.105 0 4.491 2.246 2.246 4.49 0 8.106 0 15.333 0h1.334c7.228 0 10.842 0 13.087 2.246C32 4.49 32 8.106 32 15.333v1.334c0 7.228 0 10.842-2.245 13.087C27.509 32 23.895 32 16.667 32h-1.334c-7.228 0-10.842 0-13.087-2.245C0 27.509 0 23.895 0 16.667z"></path><g clip-path="url(#32_youtube_svg__b)"><path fill="#595959" d="M23.665 11.874c-.184-.738-.726-1.319-1.414-1.516C21.003 10 15.999 10 15.999 10s-5.003 0-6.25.358c-.689.197-1.231.778-1.415 1.516C8 13.21 8 16 8 16s0 2.79.334 4.126c.184.738.726 1.319 1.414 1.516C10.996 22 16 22 16 22s5.004 0 6.252-.358c.688-.197 1.23-.778 1.414-1.516C24 18.79 24 16 24 16s0-2.79-.335-4.126"></path><path fill="#E0E0E0" d="m14.399 18.571 4.157-2.57-4.157-2.573z"></path></g></g><defs><clipPath id="32_youtube_svg__a"><rect width="32" height="32" fill="#fff" rx="6"></rect></clipPath><clipPath id="32_youtube_svg__b"><path fill="#fff" d="M8 10h16v12H8z"></path></clipPath></defs></svg>