<svg xmlns="http://www.w3.org/2000/svg" width="32" height="32" fill="none"><g clip-path="url(#32_tiktok_svg__a)"><path fill="#E0E0E0" d="M0 15.333C0 8.105 0 4.491 2.246 2.246 4.49 0 8.106 0 15.333 0h1.334c7.228 0 10.842 0 13.087 2.246C32 4.49 32 8.106 32 15.333v1.334c0 7.228 0 10.842-2.245 13.087C27.509 32 23.895 32 16.667 32h-1.334c-7.228 0-10.842 0-13.087-2.245C0 27.509 0 23.895 0 16.667z"></path><path fill="#595959" fill-rule="evenodd" d="M19.891 12.686a8.2 8.2 0 0 0 4.774 1.527v-2.695a4.8 4.8 0 0 1-2.534-1.453 4.8 4.8 0 0 1-2.187-3.234h-2.496v13.676a2.896 2.896 0 0 1-5.202 1.743 2.895 2.895 0 0 1 2.182-5.346V14.18a6.33 6.33 0 0 0-4.394 10.752 6.3 6.3 0 0 0 3.525 1.07 6.33 6.33 0 0 0 6.332-6.328z" clip-rule="evenodd"></path><path fill="#595959" fill-rule="evenodd" d="M24.665 11.518v-.73a4.77 4.77 0 0 1-2.534-.723 4.8 4.8 0 0 0 2.534 1.453M19.944 6.83a5 5 0 0 1-.053-.393v-.44h-3.446v13.676a2.896 2.896 0 0 1-4.2 2.576 2.896 2.896 0 0 0 5.202-1.743V6.83zm-5.516 7.349v-.776a6.33 6.33 0 0 0-7.201 6.27 6.32 6.32 0 0 0 2.807 5.258 6.33 6.33 0 0 1 4.394-10.752" clip-rule="evenodd"></path></g><defs><clipPath id="32_tiktok_svg__a"><rect width="32" height="32" fill="#fff" rx="6"></rect></clipPath></defs></svg>