<svg width="16" height="16" viewBox="0 0 16 16" fill="none" xmlns="http://www.w3.org/2000/svg">
<path d="M15.75 7.99988C15.75 7.58568 15.4142 7.24988 15 7.24988H6H4.01777C3.57312 7.24908 3.35006 6.71118 3.66421 6.39628L5.03033 5.03018L8.5303 1.53018C8.8232 1.23728 8.8232 0.762378 8.5303 0.469478C8.2374 0.176678 7.7626 0.176678 7.4697 0.469478L0.469668 7.46948C0.248688 7.69048 0.194429 8.01507 0.306909 8.28697C0.343509 8.37537 0.397758 8.45828 0.469668 8.53018L3.96967 12.0302L7.4697 15.5302C7.7626 15.8231 8.2374 15.8231 8.5303 15.5302C8.8232 15.2373 8.8232 14.7624 8.5303 14.4695L5.03033 10.9695L3.66421 9.60338C3.34923 9.28848 3.57232 8.74988 4.01777 8.74988H6H15C15.4142 8.74988 15.75 8.41408 15.75 7.99988Z" fill="#404040"/>
</svg>
