<svg width="120" height="65" viewBox="0 0 120 65" fill="none" xmlns="http://www.w3.org/2000/svg">
<path d="M71.9775 37.3438V28.833C71.9775 28.6553 72.0413 28.5049 72.1689 28.3818C72.2965 28.2588 72.4492 28.1973 72.627 28.1973H80.5088C80.6865 28.1973 80.8369 28.2611 80.96 28.3887C81.0876 28.5163 81.1514 28.6689 81.1514 28.8467V29.4893C81.1514 29.667 81.0876 29.8197 80.96 29.9473C80.8369 30.0703 80.6865 30.1318 80.5088 30.1318H74.5547V32.1211H79.6816C79.8594 32.1211 80.0098 32.1849 80.1328 32.3125C80.2604 32.4355 80.3242 32.5859 80.3242 32.7637V33.4062C80.3242 33.584 80.2604 33.7367 80.1328 33.8643C80.0098 33.9873 79.8594 34.0488 79.6816 34.0488H74.5547V36.0654H80.4951C80.6683 36.0654 80.8164 36.127 80.9395 36.25C81.0625 36.373 81.124 36.5234 81.124 36.7012V37.3574C81.124 37.5352 81.0602 37.6878 80.9326 37.8154C80.805 37.9385 80.6523 38 80.4746 38H72.627C72.4492 38 72.2965 37.9385 72.1689 37.8154C72.0413 37.6878 71.9775 37.5306 71.9775 37.3438ZM81.4316 37.3574V36.7012C81.4316 36.5234 81.4932 36.373 81.6162 36.25C81.7438 36.127 81.8965 36.0654 82.0742 36.0654H82.6074L83.8789 30.8906C84.321 29.0951 85.8021 28.1973 88.3223 28.1973H92.0137C92.1914 28.1973 92.3418 28.2588 92.4648 28.3818C92.5924 28.5049 92.6562 28.6553 92.6562 28.833V37.3711C92.6562 37.5488 92.5924 37.6992 92.4648 37.8223C92.3418 37.9408 92.1914 38 92.0137 38H82.0742C81.8965 38 81.7438 37.9385 81.6162 37.8154C81.4932 37.6878 81.4316 37.5352 81.4316 37.3574ZM85.2393 36.0654H90.0859V30.1318H88.042C87.609 30.1318 87.2513 30.2503 86.9688 30.4873C86.6862 30.7243 86.4925 31.0547 86.3877 31.4785L85.2393 36.0654ZM93.8115 37.3711L95.5273 30.8633C95.9922 29.0905 97.5052 28.2018 100.066 28.1973H103.751C103.92 28.1973 104.059 28.2611 104.168 28.3887C104.282 28.5163 104.339 28.6644 104.339 28.833V37.3711C104.339 37.5488 104.275 37.6992 104.147 37.8223C104.02 37.9408 103.867 38 103.689 38H102.404C102.217 38 102.062 37.9408 101.939 37.8223C101.821 37.6992 101.762 37.5443 101.762 37.3574V35.6348H96.9014L96.4434 37.3574C96.3978 37.5443 96.2952 37.6992 96.1357 37.8223C95.9762 37.9408 95.8076 38 95.6299 38H94.2832C94.1055 38 93.9779 37.9499 93.9004 37.8496C93.8229 37.7448 93.7842 37.6536 93.7842 37.5762C93.7887 37.4987 93.7979 37.4303 93.8115 37.3711ZM97.4072 33.7002H101.762V30.1318H99.8135C99.376 30.1318 98.9932 30.2572 98.665 30.5078C98.3415 30.7539 98.1227 31.0866 98.0088 31.5059L97.4072 33.7002Z" fill="black"/>
<path d="M54.0403 58.5897H10.7397C9.01781 58.5897 7.54969 57.3481 7.26875 55.6489L6 48.4714H58.78L57.5113 55.6489C57.2258 57.3436 55.7577 58.5897 54.0403 58.5897Z" fill="#161D21"/>
<path d="M55.155 51.7384H9.625C7.62219 51.7384 6 50.1163 6 48.1134V9.625C6 7.62219 7.62219 6 9.625 6H55.155C57.1578 6 58.78 7.62219 58.78 9.625V48.118C58.78 50.1163 57.1578 51.7384 55.155 51.7384Z" fill="url(#paint0_linear_1305_249)"/>
<path d="M22.1766 27.8588H12.1942C10.6944 27.8588 9.47546 26.6398 9.47546 25.14V11.1158C9.47546 9.61594 10.6944 8.39703 12.1942 8.39703H22.1766C23.6764 8.39703 24.8953 9.61594 24.8953 11.1158V25.14C24.8953 26.6398 23.6764 27.8588 22.1766 27.8588Z" fill="#E53A35"/>
<g opacity="0.2">
<path opacity="0.2" d="M55.01 7.54064C56.3105 7.54064 57.3663 8.59642 57.3663 9.89689V48.0999C57.3663 48.186 57.3572 48.2856 57.3436 48.417C57.33 48.5031 57.33 48.5938 57.3345 48.6799L56.1202 55.5492C55.9525 56.5688 55.078 57.3074 54.0448 57.3074H10.7397C9.70656 57.3074 8.83203 56.5688 8.65984 55.5356L7.44547 48.6799C7.45 48.5938 7.44547 48.5031 7.43641 48.417C7.41828 48.2902 7.41375 48.1905 7.41375 48.0999V9.89689C7.41375 8.59642 8.46953 7.54064 9.77 7.54064H55.01V7.54064ZM55.01 6.12689H9.77C7.69016 6.12689 6 7.81252 6 9.89689V48.0999C6 48.272 6.01359 48.4352 6.03625 48.6028H6L7.26875 55.7803C7.54969 57.475 9.01781 58.7211 10.7397 58.7211H54.0403C55.7622 58.7211 57.2303 57.4795 57.5113 55.7803L58.78 48.6028H58.7438C58.7664 48.4397 58.78 48.272 58.78 48.0999V9.89689C58.78 7.81252 57.0898 6.12689 55.01 6.12689Z" fill="#EEEEEE"/>
</g>
<path d="M9.34857 45.8025V34.9003C9.34857 33.4005 10.5675 32.1816 12.0673 32.1816H34.8006C36.3004 32.1816 37.5194 33.4005 37.5194 34.9003V45.798C37.5194 47.2978 36.3004 48.5167 34.8006 48.5167H12.0673C10.5629 48.5213 9.34857 47.3024 9.34857 45.8025Z" fill="#E53A35"/>
<path d="M41.1263 45.5624V35.1405C41.1263 33.6407 42.3452 32.4218 43.845 32.4218H52.5858C54.0856 32.4218 55.3045 33.6407 55.3045 35.1405V45.5624C55.3045 47.0622 54.0856 48.2811 52.5858 48.2811H43.845C42.3452 48.2811 41.1263 47.0668 41.1263 45.5624Z" fill="#E53A35"/>
<path d="M53.0208 28.0898H30.7134C29.2136 28.0898 27.9947 26.8709 27.9947 25.3711V11.1158C27.9947 9.61594 29.2136 8.39703 30.7134 8.39703H53.0208C54.5206 8.39703 55.7395 9.61594 55.7395 11.1158V25.3756C55.7395 26.8755 54.5206 28.0898 53.0208 28.0898Z" fill="#E53A35"/>
<path d="M47.402 33.7675H46.9716V34.2116H47.402V33.7675Z" fill="#A16541"/>
<path d="M39.06 50.4516H7.31854L7.73542 42.4086C8.12511 37.3427 12.4479 33.2238 17.4912 32.5939C19.0907 32.3946 20.9757 32.2722 23.1915 32.2722C25.4073 32.2722 27.2923 32.3946 28.8918 32.5939C33.9306 33.2238 38.2579 37.3427 38.6476 42.4086L39.06 50.4516Z" fill="url(#paint1_radial_1305_249)"/>
<path d="M38.0722 50.805C39.1482 50.805 40.0206 49.9327 40.0206 48.8566C40.0206 47.7805 39.1482 46.9081 38.0722 46.9081C36.9961 46.9081 36.1237 47.7805 36.1237 48.8566C36.1237 49.9327 36.9961 50.805 38.0722 50.805Z" fill="url(#paint2_radial_1305_249)"/>
<path d="M38.6476 43.8903C39.1597 43.5369 39.495 42.9523 39.495 42.2817C39.495 41.6927 39.2322 41.167 38.8153 40.8091C38.5162 40.5553 38.4075 40.143 38.4754 39.7578C38.4936 39.6491 38.5026 39.5403 38.5026 39.427C38.5026 38.3486 37.6281 37.4786 36.5542 37.4786C36.5451 37.4786 36.5406 37.4786 36.5315 37.4831C36.5497 37.3698 36.5678 37.2566 36.5678 37.1388C36.5678 36.0603 35.6932 35.1903 34.6193 35.1903C34.6193 34.1119 33.7448 33.2419 32.6709 33.2419C32.5893 33.2419 32.5123 33.2464 32.4353 33.2555C32.0501 33.3053 31.6831 33.1105 31.4384 32.8114C31.085 32.3764 30.5458 32.0955 29.9386 32.0955C29.6622 32.0955 29.4039 32.1544 29.1682 32.2586C28.8782 32.39 28.5248 32.3356 28.2892 32.1227C27.9448 31.8145 27.4962 31.6242 26.9933 31.6242C26.6579 31.6242 26.3453 31.7103 26.0734 31.8598C25.7879 32.0184 25.4164 31.9822 25.1853 31.7511C24.8364 31.4022 24.3561 31.1847 23.8214 31.1847C23.4272 31.1847 23.0647 31.3025 22.7565 31.5064C22.462 31.7013 22.095 31.7013 21.8004 31.5064C21.4968 31.3025 21.1298 31.1847 20.7356 31.1847C20.1647 31.1847 19.6526 31.4294 19.2992 31.8191C19.0545 32.0909 18.6557 32.1725 18.3068 32.0638C18.1301 32.0094 17.9398 31.9777 17.7404 31.9777C17.2918 31.9777 16.8795 32.1317 16.5533 32.3855C16.1998 32.6619 15.7603 32.8114 15.3208 32.7163C15.1939 32.6891 15.0579 32.6755 14.922 32.6755C13.9704 32.6755 13.182 33.3552 13.0098 34.2569C12.9283 34.2478 12.8467 34.2342 12.7651 34.2342C11.7501 34.2342 10.93 35.0091 10.8348 35.9969C10.8303 35.9969 10.8212 35.9969 10.8167 35.9969C9.73825 35.9969 8.86825 36.8714 8.86825 37.9453C8.86825 37.9634 8.86825 37.977 8.86825 37.9952C8.87731 38.3486 8.70513 38.6703 8.4106 38.8652C7.88497 39.2141 7.53606 39.8077 7.53606 40.4828C7.53606 40.868 7.65388 41.2259 7.84419 41.5295C7.51794 41.8784 7.31403 42.3452 7.31403 42.8617C7.31403 43.4327 7.56325 43.9447 7.95747 44.3027C7.56325 44.6606 7.3095 45.1727 7.3095 45.7481C7.3095 46.387 7.62216 46.9489 8.09794 47.3069C7.53606 47.7283 7.20075 48.4397 7.34122 49.2236C7.47716 49.9848 8.07981 50.6102 8.84106 50.7688C10.1008 51.0316 11.2064 50.0755 11.2064 48.8611C11.2064 48.2222 10.8937 47.6603 10.4179 47.3023C10.8937 46.9489 11.2064 46.3825 11.2064 45.7436C11.2064 45.1727 10.9572 44.6606 10.5629 44.3027C10.9572 43.9447 11.2109 43.4327 11.2109 42.8572C11.2109 42.472 11.0931 42.1141 10.9028 41.8105C11.229 41.4616 11.4329 40.9948 11.4329 40.4783C11.4329 40.2472 11.3876 40.0252 11.3106 39.8213C12.0854 39.6173 12.6654 38.9513 12.747 38.1311C12.7515 38.1311 12.7606 38.1311 12.7651 38.1311C13.7167 38.1311 14.5051 37.4514 14.6773 36.5497C14.7589 36.5588 14.8404 36.5723 14.922 36.5723C15.6697 36.5723 16.3131 36.1464 16.6393 35.5302C16.952 35.7477 17.3326 35.8745 17.7404 35.8745C18.5561 35.8745 19.2493 35.3761 19.5439 34.6647C19.8747 34.923 20.287 35.0816 20.7356 35.0816C21.3654 35.0816 21.9228 34.778 22.2762 34.3113C22.6342 34.7734 23.187 35.0816 23.8168 35.0816C24.3878 35.0816 24.8953 34.8323 25.2533 34.4427C25.575 35.0816 26.2275 35.5211 26.9887 35.5211C27.4781 35.5211 27.9222 35.3353 28.262 35.0363C28.6018 35.6072 29.2181 35.9969 29.934 35.9969C30.2512 35.9969 30.5503 35.9153 30.8131 35.7794C31.0623 36.5678 31.7918 37.1433 32.6618 37.1433C32.6618 38.2217 33.5364 39.0917 34.6103 39.0917C34.6193 39.0917 34.6239 39.0917 34.6329 39.0872C34.6148 39.2005 34.5967 39.3138 34.5967 39.4316C34.5967 40.2744 35.1359 40.9858 35.8836 41.2577C35.6978 41.5567 35.5845 41.9056 35.5845 42.2817C35.5845 43.1563 36.1645 43.8858 36.9529 44.135C36.3548 44.5428 35.9968 45.2769 36.1328 46.0834C36.2642 46.8538 36.8714 47.4881 37.6326 47.6467C38.8923 47.9095 40.0025 46.9534 40.0025 45.7436C40.0206 44.8691 39.4406 44.1395 38.6476 43.8903Z" fill="url(#paint3_radial_1305_249)"/>
<path d="M22.9151 38.4347C24.2114 38.4347 25.2623 37.5745 25.2623 36.5134C25.2623 35.4523 24.2114 34.5922 22.9151 34.5922C21.6188 34.5922 20.5679 35.4523 20.5679 36.5134C20.5679 37.5745 21.6188 38.4347 22.9151 38.4347Z" fill="#B0BEC5"/>
<path d="M22.9151 37.6281C24.2114 37.6281 25.2623 36.768 25.2623 35.7069C25.2623 34.6458 24.2114 33.7856 22.9151 33.7856C21.6188 33.7856 20.5679 34.6458 20.5679 35.7069C20.5679 36.768 21.6188 37.6281 22.9151 37.6281Z" fill="url(#paint4_radial_1305_249)"/>
<path opacity="0.2" d="M14.5971 44.3945C14.6555 44.0288 14.0978 43.6357 13.3515 43.5166C12.6051 43.3975 11.9528 43.5974 11.8944 43.9632C11.8361 44.3289 12.3938 44.722 13.1401 44.8411C13.8864 44.9602 14.5387 44.7603 14.5971 44.3945Z" fill="#B0BEC5"/>
<path opacity="0.2" d="M17.5487 46.7698C17.6071 46.404 17.1816 46.0321 16.5984 45.939C16.0152 45.8459 15.4951 46.067 15.4367 46.4327C15.3783 46.7985 15.8038 47.1704 16.387 47.2635C16.9702 47.3566 17.4903 47.1355 17.5487 46.7698Z" fill="#B0BEC5"/>
<path opacity="0.2" d="M10.3074 43.1175C10.942 42.7069 11.2933 42.122 11.0921 41.8111C10.8909 41.5001 10.2134 41.5808 9.57887 41.9913C8.94433 42.4019 8.59303 42.9868 8.79422 43.2977C8.9954 43.6087 9.6729 43.528 10.3074 43.1175Z" fill="#B0BEC5"/>
<path opacity="0.2" d="M10.9116 47.1021C11.0736 46.769 10.7452 46.2754 10.1781 45.9996C9.61093 45.7237 9.01985 45.7701 8.85785 46.1032C8.69584 46.4363 9.02427 46.9299 9.5914 47.2058C10.1585 47.4816 10.7496 47.4352 10.9116 47.1021Z" fill="#90A4AE"/>
<path opacity="0.2" d="M13.5817 48.9622C14.1273 48.6459 14.419 48.1298 14.2333 47.8093C14.0476 47.4889 13.4547 47.4855 12.909 47.8017C12.3634 48.118 12.0717 48.6342 12.2574 48.9546C12.4431 49.2751 13.036 49.2785 13.5817 48.9622Z" fill="#90A4AE"/>
<path opacity="0.2" d="M36.1618 45.5352C36.9081 45.416 37.4658 45.023 37.4074 44.6572C37.349 44.2915 36.6967 44.0916 35.9504 44.2107C35.2041 44.3298 34.6464 44.7228 34.7048 45.0886C34.7631 45.4543 35.4155 45.6543 36.1618 45.5352Z" fill="#B0BEC5"/>
<path opacity="0.2" d="M30.7065 47.2793C31.4528 47.1602 32.0105 46.7672 31.9521 46.4014C31.8937 46.0357 31.2414 45.8358 30.4951 45.9549C29.7487 46.074 29.1911 46.467 29.2494 46.8328C29.3078 47.1985 29.9601 47.3985 30.7065 47.2793Z" fill="#B0BEC5"/>
<path opacity="0.2" d="M37.5948 41.8936C37.796 41.5826 37.4447 40.9977 36.8101 40.5872C36.1756 40.1767 35.4981 40.0959 35.2969 40.4069C35.0957 40.7179 35.447 41.3028 36.0816 41.7133C36.7161 42.1238 37.3936 42.2046 37.5948 41.8936Z" fill="#B0BEC5"/>
<path opacity="0.2" d="M35.6931 48.9582C35.8789 48.6378 35.5871 48.1216 35.0415 47.8053C34.4959 47.4891 33.903 47.4925 33.7172 47.8129C33.5315 48.1334 33.8232 48.6495 34.3689 48.9658C34.9145 49.282 35.5074 49.2787 35.6931 48.9582Z" fill="#90A4AE"/>
<path opacity="0.2" d="M21.9596 48.6191C22.0365 48.2568 21.5987 47.8571 20.9818 47.7262C20.3649 47.5953 19.8025 47.783 19.7256 48.1453C19.6488 48.5076 20.0866 48.9074 20.7035 49.0382C21.3204 49.1691 21.8828 48.9814 21.9596 48.6191Z" fill="#B0BEC5"/>
<path opacity="0.2" d="M24.0676 46.2838C24.9097 46.2381 25.5761 45.9013 25.556 45.5314C25.5359 45.1616 24.837 44.8989 23.9949 44.9446C23.1528 44.9903 22.4864 45.3271 22.5065 45.697C22.5266 46.0668 23.2255 46.3295 24.0676 46.2838Z" fill="#B0BEC5"/>
<path opacity="0.2" d="M20.9037 45.2618C21.4817 45.0096 21.8301 44.5299 21.682 44.1904C21.5338 43.851 20.9452 43.7803 20.3672 44.0326C19.7892 44.2848 19.4408 44.7645 19.5889 45.1039C19.7371 45.4434 20.3257 45.5141 20.9037 45.2618Z" fill="#B0BEC5"/>
<path opacity="0.2" d="M18.3224 43.2769C18.4594 42.9327 18.0955 42.4647 17.5096 42.2314C16.9236 41.9981 16.3376 42.088 16.2006 42.4321C16.0636 42.7762 16.4275 43.2443 17.0134 43.4776C17.5994 43.7108 18.1854 43.621 18.3224 43.2769Z" fill="#B0BEC5"/>
<path opacity="0.2" d="M15.4711 40.5383C15.5821 39.9175 15.3764 39.3614 15.0118 39.2962C14.6472 39.2311 14.2617 39.6815 14.1508 40.3023C14.0399 40.9231 14.2455 41.4792 14.6101 41.5444C14.9747 41.6095 15.3602 41.1591 15.4711 40.5383Z" fill="#D0D8DC"/>
<path opacity="0.2" d="M22.3649 41.4923C22.4207 41.1261 21.9606 40.7522 21.3372 40.6571C20.7137 40.562 20.163 40.7817 20.1072 41.1479C20.0513 41.514 20.5114 41.8879 21.1349 41.983C21.7584 42.0781 22.309 41.8584 22.3649 41.4923Z" fill="#D0D8DC"/>
<path opacity="0.2" d="M33.0179 40.1416C33.5564 39.8135 33.8367 39.291 33.6439 38.9748C33.4512 38.6585 32.8584 38.6682 32.3199 38.9963C31.7814 39.3245 31.5011 39.847 31.6938 40.1632C31.8866 40.4795 32.4794 40.4698 33.0179 40.1416Z" fill="#B0BEC5"/>
<path opacity="0.2" d="M12.3789 39.5878C12.5159 39.2437 12.152 38.7756 11.5661 38.5424C10.9801 38.3091 10.3941 38.399 10.2571 38.7431C10.1201 39.0872 10.484 39.5553 11.0699 39.7885C11.6559 40.0218 12.2419 39.9319 12.3789 39.5878Z" fill="#B0BEC5"/>
<path opacity="0.2" d="M27.2247 48.9759C27.7852 48.6867 28.1018 48.1855 27.932 47.8563C27.7622 47.5272 27.1702 47.4947 26.6098 47.7839C26.0493 48.073 25.7326 48.5743 25.9025 48.9034C26.0723 49.2326 26.6643 49.265 27.2247 48.9759Z" fill="#90A4AE"/>
<path opacity="0.2" d="M27.8396 41.5115C28.559 41.28 29.0502 40.8065 28.9368 40.4539C28.8234 40.1014 28.1482 40.0032 27.4288 40.2347C26.7094 40.4662 26.2181 40.9397 26.3316 41.2922C26.445 41.6448 27.1202 41.7429 27.8396 41.5115Z" fill="#D0D8DC"/>
<path opacity="0.2" d="M32.8386 36.4821C33.0143 36.1561 32.6174 35.6011 31.9521 35.2426C31.2868 34.8841 30.605 34.8577 30.4293 35.1838C30.2536 35.5098 30.6505 36.0648 31.3158 36.4233C31.9811 36.7818 32.6629 36.8082 32.8386 36.4821Z" fill="#D0D8DC"/>
<path opacity="0.2" d="M13.9223 37.0314C14.3584 36.7293 14.541 36.2376 14.33 35.9331C14.1191 35.6287 13.5946 35.6268 13.1585 35.9289C12.7224 36.2311 12.5398 36.7228 12.7508 37.0273C12.9617 37.3317 13.4862 37.3336 13.9223 37.0314Z" fill="#D0D8DC"/>
<path opacity="0.2" d="M18.2728 40.1187C18.7089 39.8166 18.8915 39.3248 18.6805 39.0204C18.4696 38.7159 17.9451 38.7141 17.509 39.0162C17.0729 39.3184 16.8904 39.8101 17.1013 40.1145C17.3122 40.419 17.8367 40.4209 18.2728 40.1187Z" fill="#D0D8DC"/>
<path opacity="0.2" d="M29.3373 38.1784C29.7734 37.8762 29.9559 37.3845 29.745 37.08C29.534 36.7756 29.0095 36.7737 28.5734 37.0758C28.1373 37.378 27.9548 37.8697 28.1657 38.1742C28.3766 38.4786 28.9012 38.4805 29.3373 38.1784Z" fill="#D0D8DC"/>
<path opacity="0.2" d="M28.527 34.1385C28.6638 33.7944 28.3749 33.3565 27.8819 33.1607C27.3889 32.9648 26.8784 33.085 26.7416 33.4292C26.6049 33.7734 26.8937 34.2112 27.3867 34.4071C27.8798 34.603 28.3903 34.4827 28.527 34.1385Z" fill="#D0D8DC"/>
<path opacity="0.2" d="M17.0875 36.583C17.5907 36.415 17.9037 35.9941 17.7865 35.6428C17.6692 35.2914 17.1662 35.1427 16.663 35.3106C16.1597 35.4786 15.8467 35.8995 15.964 36.2508C16.0812 36.6022 16.5842 36.7509 17.0875 36.583Z" fill="#D0D8DC"/>
<path opacity="0.2" d="M19.8173 33.3973C19.8554 33.0289 19.4586 32.6859 18.9308 32.6313C18.4031 32.5766 17.9444 32.831 17.9062 33.1994C17.8681 33.5678 18.265 33.9108 18.7927 33.9654C19.3204 34.02 19.7791 33.7657 19.8173 33.3973Z" fill="#D0D8DC"/>
<path opacity="0.2" d="M32.5964 43.6186C33.3151 43.3849 33.8049 42.9099 33.6904 42.5577C33.5759 42.2055 32.9004 42.1094 32.1817 42.3431C31.4629 42.5767 30.9731 43.0517 31.0876 43.4039C31.2022 43.7562 31.8776 43.8523 32.5964 43.6186Z" fill="#B0BEC5"/>
<path opacity="0.2" d="M29.2059 44.8813C29.3777 44.5532 28.9744 44.0029 28.3049 43.6523C27.6354 43.3016 26.9534 43.2833 26.7816 43.6113C26.6097 43.9394 27.0131 44.4897 27.6826 44.8403C28.352 45.191 29.034 45.2093 29.2059 44.8813Z" fill="#B0BEC5"/>
<path opacity="0.1" d="M20.0725 37.2342C20.7913 37.0005 21.2811 36.5255 21.1666 36.1733C21.0521 35.8211 20.3766 35.725 19.6578 35.9587C18.9391 36.1923 18.4493 36.6673 18.5638 37.0195C18.6783 37.3718 19.3538 37.4679 20.0725 37.2342Z" fill="#D0D8DC"/>
<path d="M23.9454 12.883C24.3215 13.8481 24.3215 15.9098 24.3215 15.9098C24.3215 15.9098 20.5696 16.8931 17.0851 16.8931C13.6685 16.8931 9.87585 15.9098 9.87585 15.9098C9.87585 15.9098 9.87585 13.9478 10.2248 12.883C10.9226 10.7623 13.0885 8.8728 17.0851 8.8728C21.0816 8.8728 23.1298 10.7941 23.9454 12.883Z" fill="url(#paint5_radial_1305_249)"/>
<path d="M24.3199 15.6108C24.3199 17.8266 22.5074 19.3219 17.0835 19.3219C11.6595 19.3219 9.84705 17.8266 9.84705 15.6108C9.84705 13.395 13.0869 11.6006 17.0835 11.6006C21.08 11.6006 24.3199 13.395 24.3199 15.6108Z" fill="url(#paint6_linear_1305_249)"/>
<path d="M22.4303 14.6863L23.3185 14.342L22.9877 13.3995L22.2672 14.4417L22.4303 14.6863Z" fill="#568B3E"/>
<path d="M21.6056 14.5278L21.7008 13.7212L21.2658 13.3089L21.0891 14.5414L21.6056 14.5278Z" fill="#568B3E"/>
<path d="M16.8705 13.9115L16.9702 13.1005L16.5352 12.6881L16.5216 13.3089L16.5125 13.9251L16.8705 13.9115Z" fill="#568B3E"/>
<path d="M15.4522 13.8209L15.7875 13.9251L15.86 13.1594L15.3661 12.9736L15.4522 13.8209Z" fill="#568B3E"/>
<path d="M12.9464 14.1744L13.0778 13.5264L12.2622 13.3089L12.38 14.4508L12.9464 14.1744Z" fill="#568B3E"/>
<path d="M22.095 12.9917C21.583 12.6292 21.1752 13.1593 21.2794 13.4131C21.3428 13.5717 21.4923 13.6714 21.447 13.8572C21.4017 14.0429 21.2522 14.0701 20.9848 14.052C20.6858 14.0339 20.5227 13.8028 20.4819 13.5989C20.3006 12.6881 19.7387 12.4887 19.3173 12.6972C18.973 12.8693 19.3536 13.1956 19.0409 13.3225C18.6784 13.4675 18.47 13.3814 18.2978 13.1775C18.1664 13.0234 18.3386 12.7651 18.0803 12.4479C17.6544 11.9178 16.6212 12.2395 16.517 12.6065C16.4128 12.9736 16.7572 12.9917 16.7708 13.3089C16.7844 13.6261 16.1817 13.7983 15.8781 13.6714C15.2528 13.4131 15.9098 13.4403 15.8555 13.037C15.7784 12.4842 14.99 12.6564 14.8087 12.7651C14.3284 13.0506 14.5052 13.2953 14.3873 13.472C14.1064 13.8798 13.685 13.6578 13.4675 13.5309C13.25 13.404 13.2047 12.8648 12.5341 13.0687C12.0764 13.2092 12.2667 13.5354 12.4525 13.7393C12.5386 13.8345 12.5069 13.984 12.3891 14.0384C11.9495 14.2333 11.6097 13.9387 11.3695 13.8028C11.0841 13.6442 10.6627 13.6668 10.4633 13.8798C10.2277 14.1381 10.9617 14.2831 10.6717 14.5414C10.4316 14.7543 10.1098 14.4281 10.0464 14.3375C9.67484 13.839 9.05859 14.9129 9.55703 15.0308C10.0509 15.1486 9.95578 15.5881 9.86515 15.7376C9.6839 16.0412 9.335 15.3162 9.44828 16.5487C9.52531 17.4142 10.1461 17.8764 10.5992 18.18C11.2019 18.5878 22.3306 19.1814 23.8712 18.2479C24.2564 18.0123 25.3167 16.5261 25.0403 15.9823C24.628 15.1848 24.5736 16.2043 24.3108 15.9053C23.7398 15.2528 24.6144 15.1848 24.4694 14.7951C24.3153 14.3737 24.1839 14.7226 24.0298 14.564C23.8078 14.3329 23.8939 14.197 24.0027 14.0384C24.1159 13.8708 23.5223 13.3315 23.1281 13.3315C22.7384 13.3315 23.2006 13.8073 22.9514 13.9342C22.7022 14.0611 22.5391 13.9478 22.2717 13.6895C22.0044 13.4448 22.3986 13.2047 22.095 12.9917Z" fill="url(#paint7_linear_1305_249)"/>
<path d="M23.9454 18.3296C24.3215 19.2947 24.3215 21.3564 24.3215 21.3564C24.3215 21.3564 20.5696 22.3397 17.0851 22.3397C13.6685 22.3397 9.87585 21.3564 9.87585 21.3564C9.87585 21.3564 9.87585 19.3944 10.2248 18.3296C10.9226 16.2089 13.0885 14.3194 17.0851 14.3194C21.0816 14.3194 23.1298 16.2406 23.9454 18.3296Z" fill="url(#paint8_radial_1305_249)"/>
<path d="M24.3199 21.0574C24.3199 23.2732 22.5074 24.7685 17.0835 24.7685C11.6595 24.7685 9.84705 23.2732 9.84705 21.0574C9.84705 18.8416 13.0869 17.0472 17.0835 17.0472C21.08 17.0472 24.3199 18.8416 24.3199 21.0574Z" fill="url(#paint9_linear_1305_249)"/>
<path d="M14.9111 15.582C15.2851 15.5123 15.5584 15.2962 15.5217 15.0994C15.485 14.9026 15.1521 14.7996 14.7782 14.8693C14.4043 14.9391 14.1309 15.1552 14.1676 15.352C14.2043 15.5488 14.5372 15.6518 14.9111 15.582Z" fill="#FDD836"/>
<path d="M16.9255 15.2061C17.3048 15.1771 17.5999 14.9918 17.5847 14.7922C17.5695 14.5926 17.2496 14.4542 16.8703 14.4832C16.4911 14.5121 16.1959 14.6974 16.2112 14.897C16.2264 15.0967 16.5462 15.235 16.9255 15.2061Z" fill="#FDD836"/>
<path d="M16.3275 15.9083C16.7068 15.8794 17.0019 15.6941 16.9867 15.4945C16.9714 15.2949 16.6516 15.1565 16.2723 15.1854C15.893 15.2144 15.5979 15.3997 15.6132 15.5993C15.6284 15.7989 15.9482 15.9373 16.3275 15.9083Z" fill="#F9BF2C"/>
<path d="M19.0331 15.7067C19.0382 15.5066 18.734 15.3365 18.3537 15.3268C17.9735 15.3172 17.6611 15.4716 17.656 15.6717C17.6509 15.8719 17.9551 16.042 18.3353 16.0516C18.7156 16.0613 19.028 15.9069 19.0331 15.7067Z" fill="#F9BF2C"/>
<path d="M17.2186 16.3762C17.5985 16.3571 17.8983 16.1794 17.8882 15.9795C17.8781 15.7795 17.5619 15.633 17.1821 15.6522C16.8022 15.6713 16.5024 15.849 16.5125 16.0489C16.5226 16.2489 16.8387 16.3954 17.2186 16.3762Z" fill="#FDD836"/>
<path d="M19.7699 15.0822C19.7988 14.8841 19.5172 14.679 19.1408 14.6241C18.7644 14.5691 18.4358 14.6852 18.4069 14.8833C18.378 15.0814 18.6597 15.2865 19.0361 15.3415C19.4125 15.3964 19.741 15.2803 19.7699 15.0822Z" fill="#FDD836"/>
<path d="M13.9295 16.3439C14.2755 16.1858 14.4885 15.9101 14.4054 15.728C14.3222 15.5459 13.9743 15.5264 13.6283 15.6844C13.2823 15.8425 13.0692 16.1182 13.1524 16.3003C13.2356 16.4824 13.5835 16.5019 13.9295 16.3439Z" fill="#F9BF2C"/>
<path d="M18.4066 16.9022C18.787 16.9022 19.0953 16.7399 19.0953 16.5397C19.0953 16.3395 18.787 16.1772 18.4066 16.1772C18.0262 16.1772 17.7178 16.3395 17.7178 16.5397C17.7178 16.7399 18.0262 16.9022 18.4066 16.9022Z" fill="#F9BF2C"/>
<path d="M20.4623 15.7807C20.4744 15.5808 20.1765 15.4001 19.7968 15.3771C19.4171 15.354 19.0994 15.4973 19.0873 15.6972C19.0751 15.897 19.3731 16.0777 19.7528 16.1008C20.1325 16.1238 20.4502 15.9805 20.4623 15.7807Z" fill="#F9BF2C"/>
<path d="M13.6188 17.2459C13.9793 17.1244 14.2197 16.8721 14.1557 16.6824C14.0918 16.4927 13.7477 16.4374 13.3873 16.5589C13.0268 16.6804 12.7865 16.9327 12.8504 17.1224C12.9143 17.3121 13.2584 17.3674 13.6188 17.2459Z" fill="#F9A823"/>
<path d="M20.7663 16.652C20.7985 16.4544 20.5203 16.2446 20.1448 16.1833C19.7694 16.1221 19.4389 16.2326 19.4067 16.4302C19.3745 16.6278 19.6527 16.8377 20.0281 16.8989C20.4036 16.9602 20.7341 16.8496 20.7663 16.652Z" fill="#F9A823"/>
<path d="M22.3359 17.3146C22.4141 17.1303 22.1936 16.8605 21.8434 16.7119C21.4932 16.5633 21.1459 16.5923 21.0677 16.7766C20.9895 16.9609 21.21 17.2307 21.5602 17.3793C21.9104 17.5279 22.2577 17.4989 22.3359 17.3146Z" fill="#F9A823"/>
<path d="M21.8382 16.115C21.8981 15.9239 21.6523 15.6769 21.2893 15.5632C20.9263 15.4495 20.5835 15.5122 20.5237 15.7033C20.4639 15.8943 20.7096 16.1414 21.0726 16.2551C21.4356 16.3688 21.7784 16.306 21.8382 16.115Z" fill="#F9A823"/>
<path d="M12.6822 16.326C13.0096 16.1323 13.1924 15.8356 13.0904 15.6633C12.9885 15.491 12.6404 15.5083 12.313 15.702C11.9856 15.8957 11.8029 16.1924 11.9048 16.3647C12.0067 16.5371 12.3548 16.5197 12.6822 16.326Z" fill="#F9A823"/>
<path d="M12.2353 17.3918C12.5627 17.1981 12.7455 16.9014 12.6435 16.7291C12.5416 16.5567 12.1935 16.5741 11.8661 16.7678C11.5387 16.9615 11.356 17.2582 11.4579 17.4305C11.5598 17.6028 11.9079 17.5855 12.2353 17.3918Z" fill="#F9A823"/>
<path d="M23.2777 20.3641L23.1825 19.553L23.6175 19.6436L23.5042 20.7538L23.2777 20.3641Z" fill="#568B3E"/>
<path d="M11.6233 20.2871L10.7352 19.9382L11.066 19.0002L11.7864 20.0424L11.6233 20.2871Z" fill="#568B3E"/>
<path d="M12.448 20.1285L12.3528 19.3174L12.7833 18.905L12.9646 20.1421L12.448 20.1285Z" fill="#568B3E"/>
<path d="M17.1787 19.5077L17.0835 18.7011L17.5185 18.2888L17.5276 18.905L17.5366 19.5213L17.1787 19.5077Z" fill="#568B3E"/>
<path d="M18.5969 19.417L18.2661 19.5213L18.1936 18.7555L18.6875 18.5697L18.5969 19.417Z" fill="#568B3E"/>
<path d="M21.1073 19.7705L20.9713 19.1271L21.7869 18.905L21.6737 20.0469L21.1073 19.7705Z" fill="#568B3E"/>
<path d="M11.9556 18.5878C12.4677 18.2253 12.8755 18.7555 12.7713 19.0092C12.7078 19.1678 12.5583 19.2675 12.6036 19.4533C12.6489 19.6345 12.7984 19.6663 13.0658 19.6481C13.3648 19.63 13.528 19.3989 13.5688 19.195C13.75 18.2842 14.3119 18.0849 14.7333 18.2933C15.0777 18.4655 14.697 18.7917 15.0097 18.9186C15.3722 19.0636 15.5806 18.9775 15.7528 18.7736C15.8842 18.6195 15.712 18.3613 15.9703 18.0441C16.3963 17.5139 17.4294 17.8356 17.5336 18.2027C17.6378 18.5697 17.2934 18.5878 17.2798 18.905C17.2663 19.2222 17.8689 19.3944 18.1725 19.2675C18.7978 19.0092 18.1408 19.0364 18.1952 18.6331C18.2722 18.0803 19.0606 18.2525 19.2419 18.3613C19.7222 18.6467 19.5455 18.8914 19.6633 19.0681C19.9442 19.4759 20.3656 19.2539 20.5831 19.127C20.8006 19.0002 20.8459 18.4609 21.5166 18.6649C21.9742 18.8053 21.7839 19.1316 21.5981 19.3355C21.512 19.4306 21.5438 19.5802 21.6616 19.6345C22.1011 19.8294 22.4409 19.5349 22.6811 19.3989C22.9666 19.2403 23.388 19.263 23.5873 19.4759C23.823 19.7342 23.0889 19.8792 23.3789 20.1375C23.6191 20.3505 23.9408 20.0242 24.0042 19.9336C24.3758 19.4352 24.9331 20.3641 24.4936 20.6269C23.9363 20.9622 24.7111 21.003 24.7111 21.1752C24.7156 22.6433 24.0541 23.3683 23.4514 23.7761C22.8488 24.1839 11.72 24.7775 10.1794 23.8441C9.51781 23.4408 9.10094 21.5694 9.52688 21.1978C9.94828 20.8263 9.44078 20.7855 9.58578 20.3913C9.73984 19.9699 9.87125 20.3188 10.0253 20.1602C10.2473 19.9291 10.1613 19.7931 10.0525 19.6345C9.93922 19.4669 10.5328 18.9277 10.927 18.9277C11.3167 18.9277 10.8545 19.4034 11.1038 19.5303C11.353 19.6572 11.5161 19.5439 11.7834 19.2856C12.0463 19.0409 11.6566 18.8008 11.9556 18.5878Z" fill="url(#paint10_linear_1305_249)"/>
<path opacity="0.5" d="M23.4453 23.7851C22.82 24.1884 12.0538 24.8772 10.1733 23.8531C9.38488 23.4226 9.34863 21.5694 9.34863 21.5694L9.68848 20.9123C9.68848 20.9123 10.1688 21.9183 10.5539 22.0587C10.9391 22.1992 10.128 19.7886 10.128 19.7886C10.128 19.7886 11.51 21.7733 12.0583 21.8276C12.6066 21.882 12.5024 19.6481 12.5024 19.6481C12.5024 19.6481 13.3089 22.6841 13.7802 22.7112C14.256 22.7384 14.1608 19.3944 14.555 19.05C14.9447 18.7056 15.6969 23.187 16.1727 23.4136C16.6485 23.6356 16.5216 19.5258 16.9883 19.05C17.523 18.5108 17.1016 22.5662 17.9444 22.7928C18.7691 23.0194 18.5878 19.5394 19.5213 19.3219C20.0243 19.2041 19.3128 22.6795 20.0243 22.7928C21.2386 22.9876 21.4788 20.0151 22.1358 19.8067C22.5527 19.6753 22.1086 22.5526 22.385 22.7656C22.7475 23.042 24.705 21.3247 24.705 21.3247C24.705 21.3247 24.7503 22.9423 23.4453 23.7851Z" fill="url(#paint11_linear_1305_249)"/>
<path d="M23.9454 24.2791C24.3215 25.2442 24.3215 27.306 24.3215 27.306C24.3215 27.306 20.5696 28.2892 17.0851 28.2892C13.6685 28.2892 9.87585 27.306 9.87585 27.306C9.87585 27.306 9.87585 25.3439 10.2248 24.2791C10.9226 22.1585 13.0885 20.2689 17.0851 20.2689C21.0816 20.2689 23.1298 22.1902 23.9454 24.2791Z" fill="url(#paint12_radial_1305_249)"/>
<path d="M24.3199 27.0023C24.3199 29.2181 22.2944 28.3889 16.8705 28.3889C11.4466 28.3889 9.84705 29.2181 9.84705 27.0023C9.84705 24.7866 13.0869 22.9922 17.0835 22.9922C21.08 22.9922 24.3199 24.7911 24.3199 27.0023Z" fill="url(#paint13_linear_1305_249)"/>
<path d="M22.4303 26.087L23.3185 25.7427L22.9877 24.8047L22.2672 25.8423L22.4303 26.087Z" fill="#568B3E"/>
<path d="M21.6056 25.933L21.7008 25.1219L21.2658 24.7095L21.0891 25.942L21.6056 25.933Z" fill="#568B3E"/>
<path d="M16.8705 25.3122L16.9702 24.5057L16.5352 24.0933L16.5216 24.7096L16.5125 25.3258L16.8705 25.3122Z" fill="#568B3E"/>
<path d="M15.4522 25.2216L15.7875 25.3258L15.86 24.56L15.3661 24.3743L15.4522 25.2216Z" fill="#568B3E"/>
<path d="M12.9464 25.575L13.0778 24.927L12.2622 24.7095L12.38 25.8514L12.9464 25.575Z" fill="#568B3E"/>
<path d="M22.095 24.3924C21.583 24.0299 21.1752 24.56 21.2794 24.8138C21.3428 24.9724 21.4924 25.0721 21.4471 25.2579C21.4017 25.4391 21.2522 25.4708 20.9849 25.4527C20.6858 25.4346 20.5227 25.2035 20.4819 24.9996C20.3007 24.0888 19.7388 23.8894 19.3174 24.0979C18.973 24.27 19.3536 24.5963 19.041 24.7232C18.6785 24.8682 18.47 24.7821 18.2978 24.5782C18.1664 24.4241 18.3386 24.1658 18.0803 23.8486C17.6544 23.3185 16.6213 23.6402 16.5171 24.0072C16.4128 24.3743 16.7572 24.3924 16.7708 24.7096C16.7844 25.0268 16.1818 25.1989 15.8782 25.0721C15.2528 24.8138 15.9099 24.841 15.8555 24.4377C15.7785 23.8849 14.99 24.0571 14.8088 24.1658C14.3285 24.4513 14.5052 24.696 14.3874 24.8727C14.1064 25.2805 13.685 25.0585 13.4675 24.9316C13.25 24.8047 13.2047 24.2655 12.5341 24.4694C12.0764 24.6099 12.2667 24.9361 12.4525 25.14C12.5386 25.2352 12.5069 25.3847 12.3891 25.4391C11.9496 25.6339 11.6097 25.3394 11.3696 25.2035C11.0841 25.0449 10.6627 25.0675 10.4633 25.2805C10.2277 25.5388 10.9617 25.6838 10.6717 25.9421C10.4316 26.155 10.1099 25.8288 10.0464 25.7382C9.67487 25.2397 9.11753 26.1686 9.55706 26.4314C10.1144 26.7668 9.33956 26.8075 9.33956 26.9797C9.33503 28.4479 9.99659 29.1729 10.5992 29.5807C11.2019 29.9885 22.3307 30.5821 23.8713 29.6486C24.5328 29.2454 24.9497 27.3739 24.5238 27.0024C24.1024 26.6308 24.6099 26.59 24.4649 26.1958C24.3108 25.7744 24.1794 26.1233 24.0253 25.9647C23.8033 25.7336 23.8894 25.5977 23.9982 25.4391C24.1114 25.2714 23.5178 24.7322 23.1236 24.7322C22.7339 24.7322 23.1961 25.208 22.9469 25.3349C22.6977 25.4618 22.5346 25.3485 22.2672 25.0902C22.0044 24.8455 22.3986 24.6054 22.095 24.3924Z" fill="url(#paint14_linear_1305_249)"/>
<path opacity="0.5" d="M24.7503 28.7922L9.87423 28.7061L9.03595 25.9602C9.03595 25.9602 9.39392 26.0372 9.87423 26.232C10.3545 26.4269 10.35 27.0885 10.7352 27.2289C11.1203 27.3694 10.7352 25.3303 10.7352 25.3303C10.7352 25.3303 11.9858 27.7953 12.5341 27.8497C13.0824 27.9041 12.4661 25.1355 12.4661 25.1355C12.4661 25.1355 13.3089 27.1519 13.7847 27.1836C14.2605 27.2153 14.0883 24.8953 14.4825 24.5509C14.8722 24.2066 15.7014 27.6639 16.1772 27.8905C16.653 28.1125 16.4899 25.1445 16.9566 24.6688C17.4913 24.1295 17.1061 27.0431 17.9489 27.2697C18.7736 27.4963 18.4881 24.9452 19.4216 24.7277C19.9245 24.6099 19.3219 27.1564 20.0288 27.2697C21.2431 27.4645 21.6192 25.7064 22.2763 25.498C22.6931 25.3666 22.1131 27.0295 22.3941 27.2425C22.7566 27.5189 24.56 25.7789 24.56 25.7789L24.7503 28.7922Z" fill="url(#paint15_linear_1305_249)"/>
<path d="M14.6435 10.1221C15.0478 10.0913 15.3623 9.89433 15.3461 9.68223C15.33 9.47013 14.9891 9.3232 14.5849 9.35405C14.1807 9.3849 13.8661 9.58185 13.8823 9.79395C13.8985 10.0061 14.2393 10.153 14.6435 10.1221Z" fill="#FDD836"/>
<path d="M15.6385 10.5707C16.0178 10.5417 16.3129 10.3565 16.2976 10.1568C16.2824 9.95721 15.9626 9.81885 15.5833 9.84779C15.204 9.87674 14.9089 10.062 14.9241 10.2617C14.9394 10.4613 15.2592 10.5996 15.6385 10.5707Z" fill="#F9BF2C"/>
<path d="M17.6222 9.75387C17.6276 9.54122 17.3035 9.36049 16.8982 9.35019C16.4929 9.33989 16.16 9.50393 16.1546 9.71658C16.1492 9.92923 16.4733 10.11 16.8786 10.1203C17.2839 10.1306 17.6168 9.96653 17.6222 9.75387Z" fill="#FDD836"/>
<path d="M19.7168 10.2265C19.7219 10.0263 19.4177 9.85627 19.0375 9.84661C18.6572 9.83694 18.3448 9.99136 18.3397 10.1915C18.3346 10.3916 18.6388 10.5617 19.019 10.5714C19.3993 10.5811 19.7117 10.4266 19.7168 10.2265Z" fill="#F9BF2C"/>
<path d="M17.2188 10.8981C17.5987 10.8789 17.8985 10.7013 17.8884 10.5013C17.8783 10.3014 17.5622 10.1549 17.1823 10.174C16.8024 10.1932 16.5026 10.3708 16.5127 10.5708C16.5228 10.7707 16.8389 10.9173 17.2188 10.8981Z" fill="#FDD836"/>
<path d="M13.93 10.8653C14.276 10.7073 14.4891 10.4315 14.4059 10.2494C14.3227 10.0673 13.9748 10.0478 13.6288 10.2059C13.2828 10.3639 13.0698 10.6397 13.1529 10.8218C13.2361 11.0039 13.584 11.0234 13.93 10.8653Z" fill="#F9BF2C"/>
<path d="M13.6191 11.7677C13.9795 11.6462 14.2199 11.3939 14.156 11.2042C14.092 11.0145 13.748 10.9592 13.3875 11.0807C13.0271 11.2022 12.7867 11.4545 12.8506 11.6442C12.9146 11.8339 13.2586 11.8892 13.6191 11.7677Z" fill="#F9A823"/>
<path d="M20.7667 11.1731C20.7989 10.9755 20.5207 10.7656 20.1453 10.7044C19.7698 10.6432 19.4394 10.7537 19.4071 10.9513C19.3749 11.1489 19.6531 11.3587 20.0286 11.42C20.404 11.4812 20.7345 11.3707 20.7667 11.1731Z" fill="#F9A823"/>
<path d="M21.8388 10.6362C21.8986 10.4452 21.6529 10.1981 21.2899 10.0844C20.9269 9.97074 20.5841 10.0334 20.5242 10.2245C20.4644 10.4156 20.7102 10.6626 21.0732 10.7763C21.4362 10.89 21.779 10.8273 21.8388 10.6362Z" fill="#F9A823"/>
<path d="M12.6823 10.8475C13.0097 10.6538 13.1925 10.3571 13.0905 10.1847C12.9886 10.0124 12.6405 10.0298 12.3131 10.2234C11.9857 10.4171 11.803 10.7138 11.9049 10.8862C12.0069 11.0585 12.3549 11.0411 12.6823 10.8475Z" fill="#F9A823"/>
<path d="M12.2354 11.9132C12.5628 11.7195 12.7456 11.4228 12.6436 11.2505C12.5417 11.0782 12.1936 11.0955 11.8662 11.2892C11.5388 11.4829 11.3561 11.7796 11.458 11.9519C11.56 12.1242 11.908 12.1069 12.2354 11.9132Z" fill="#F9A823"/>
<path d="M15.553 21.3369C15.9322 21.3079 16.2274 21.1226 16.2121 20.923C16.1969 20.7234 15.8771 20.585 15.4978 20.614C15.1185 20.6429 14.8234 20.8282 14.8386 21.0278C14.8539 21.2275 15.1737 21.3658 15.553 21.3369Z" fill="#FDD836"/>
<path d="M15.639 22.0438C16.0183 22.0148 16.3134 21.8295 16.2982 21.6299C16.283 21.4303 15.9631 21.2919 15.5838 21.3209C15.2046 21.3498 14.9094 21.5351 14.9247 21.7347C14.9399 21.9344 15.2597 22.0727 15.639 22.0438Z" fill="#F9BF2C"/>
<path d="M18.3453 20.9914C18.3504 20.7912 18.0462 20.6212 17.6659 20.6115C17.2857 20.6018 16.9733 20.7563 16.9682 20.9564C16.9631 21.1565 17.2673 21.3266 17.6475 21.3363C18.0278 21.3459 18.3402 21.1915 18.3453 20.9914Z" fill="#FDD836"/>
<path d="M19.72 21.6966C19.7251 21.4965 19.421 21.3264 19.0407 21.3168C18.6604 21.3071 18.348 21.4615 18.3429 21.6617C18.3379 21.8618 18.642 22.0319 19.0223 22.0415C19.4026 22.0512 19.7149 21.8968 19.72 21.6966Z" fill="#F9BF2C"/>
<path d="M17.2186 22.3709C17.5985 22.3518 17.8983 22.1741 17.8882 21.9742C17.8781 21.7742 17.5619 21.6277 17.1821 21.6469C16.8022 21.666 16.5024 21.8437 16.5125 22.0436C16.5226 22.2436 16.8387 22.3901 17.2186 22.3709Z" fill="#FDD836"/>
<path d="M19.7735 21.0738C19.8024 20.8757 19.5208 20.6706 19.1444 20.6156C18.768 20.5607 18.4394 20.6768 18.4105 20.8749C18.3816 21.073 18.6633 21.2781 19.0397 21.333C19.4161 21.388 19.7446 21.2719 19.7735 21.0738Z" fill="#FDD836"/>
<path d="M13.9307 22.3386C14.2767 22.1805 14.4898 21.9048 14.4066 21.7227C14.3234 21.5405 13.9755 21.521 13.6295 21.6791C13.2835 21.8371 13.0704 22.1129 13.1536 22.295C13.2368 22.4771 13.5847 22.4966 13.9307 22.3386Z" fill="#F9BF2C"/>
<path d="M13.6199 23.2404C13.9804 23.1189 14.2208 22.8666 14.1568 22.6769C14.0929 22.4872 13.7488 22.4319 13.3884 22.5534C13.0279 22.6749 12.7876 22.9272 12.8515 23.1169C12.9154 23.3066 13.2595 23.3619 13.6199 23.2404Z" fill="#F9A823"/>
<path d="M20.7702 22.6438C20.8024 22.4462 20.5242 22.2363 20.1488 22.1751C19.7733 22.1139 19.4428 22.2244 19.4106 22.422C19.3784 22.6196 19.6566 22.8294 20.032 22.8907C20.4075 22.9519 20.738 22.8414 20.7702 22.6438Z" fill="#F9A823"/>
<path d="M22.9093 23.3197C22.9823 23.1333 22.7544 22.8696 22.4002 22.7308C22.0461 22.592 21.6997 22.6306 21.6267 22.817C21.5536 23.0034 21.7815 23.2671 22.1357 23.4059C22.4899 23.5447 22.8362 23.5061 22.9093 23.3197Z" fill="#F9A823"/>
<path d="M21.8419 22.1071C21.9017 21.9161 21.656 21.669 21.293 21.5553C20.93 21.4416 20.5872 21.5043 20.5274 21.6954C20.4675 21.8864 20.7133 22.1335 21.0763 22.2472C21.4393 22.3609 21.7821 22.2982 21.8419 22.1071Z" fill="#F9A823"/>
<path d="M12.6843 22.3205C13.0117 22.1268 13.1945 21.8301 13.0926 21.6578C12.9906 21.4854 12.6426 21.5028 12.3152 21.6965C11.9878 21.8902 11.805 22.1869 11.9069 22.3592C12.0089 22.5315 12.3569 22.5142 12.6843 22.3205Z" fill="#F9A823"/>
<path d="M12.0618 23.6128C12.3892 23.4191 12.572 23.1224 12.4701 22.9501C12.3681 22.7777 12.0201 22.7951 11.6927 22.9888C11.3653 23.1825 11.1825 23.4792 11.2844 23.6515C11.3864 23.8238 11.7344 23.8065 12.0618 23.6128Z" fill="#F9A823"/>
<path d="M54.8967 35.0997C54.7744 34.0801 53.7911 34.1753 53.7231 34.1934C53.5555 33.8037 53.0298 33.7584 52.5812 33.7584C52.3683 33.7584 52.1145 33.8219 51.8834 33.9306C51.6342 34.0484 51.3533 34.0484 51.1041 33.9306C50.873 33.8219 50.6192 33.7584 50.4062 33.7584C50.1933 33.7584 49.9395 33.8219 49.7084 33.9306C49.4592 34.0484 49.1783 34.0484 48.9291 33.9306C48.698 33.8219 48.4442 33.7584 48.2312 33.7584C48.0183 33.7584 47.7645 33.8219 47.5334 33.9306C47.2842 34.0484 47.0033 34.0484 46.7541 33.9306C46.523 33.8219 46.2692 33.7584 46.0562 33.7584C45.8433 33.7584 45.5895 33.8219 45.3584 33.9306C45.1092 34.0484 44.8283 34.0484 44.5791 33.9306C44.348 33.8219 44.0942 33.7584 43.8812 33.7584C43.4281 33.7584 42.8119 33.8219 42.6442 34.2161C42.5717 34.198 41.8286 34.3701 41.593 35.0181C41.2984 35.4123 41.1217 35.9017 41.1217 36.4364V45.9792C41.1217 47.2933 42.1865 48.3581 43.5006 48.3581H52.9166C54.2306 48.3581 55.2955 47.2933 55.2955 45.9792V36.4273C55.3045 35.938 55.155 35.4803 54.8967 35.0997Z" fill="url(#paint16_linear_1305_249)"/>
<g opacity="0.2">
<path opacity="0.2" d="M45.4445 38.199C45.2134 38.2624 44.5066 38.5071 44.2845 38.4754C43.4372 38.3485 42.7439 37.7459 42.4902 37.2746C42.2772 36.8759 43.2106 36.826 43.2831 36.9529C43.6728 37.6598 44.8736 37.1251 45.3902 37.1659C46.2556 37.2338 46.8945 37.7912 45.4445 38.199Z" fill="#434343"/>
</g>
<path d="M46.0381 37.619C46.0381 37.619 45.8659 37.8365 44.8011 37.8275L42.1685 35.6887C41.9781 35.5256 42.3497 35.2356 42.5808 35.1087L42.7258 35.0317C42.8436 34.9682 42.9886 34.9501 43.12 34.9864L46.5139 35.8836C46.7722 35.9515 46.8991 36.1872 46.7858 36.3865L46.1877 37.474C46.1559 37.5329 46.1016 37.5828 46.0381 37.619Z" fill="#F47C20"/>
<path d="M44.715 37.8139L42.8028 37.3879C42.6986 37.3653 42.617 37.2973 42.5853 37.2158L42.0552 35.6887C41.9872 35.4939 42.2228 35.3172 42.4584 35.3851L45.5397 36.2869C45.7028 36.3367 45.7844 36.4817 45.7255 36.6131L45.2587 37.5919C45.1817 37.7686 44.9416 37.8637 44.715 37.8139Z" fill="#F37021"/>
<g opacity="0.2">
<path opacity="0.2" d="M45.7481 41.4253C45.9656 41.5114 45.9249 41.8829 47.0667 41.824C48.2086 41.7651 49.2463 41.4615 49.568 40.8679C49.7809 40.4692 48.8475 40.4194 48.775 40.5462C48.3853 41.2531 47.1845 40.7184 46.668 40.7592C45.798 40.8317 45.4264 41.3029 45.7481 41.4253Z" fill="#434343"/>
</g>
<path d="M46.4505 41.3936L49.133 40.7229L49.3142 39.7306L48.5439 39.1143C48.4442 39.0328 48.3264 38.9875 48.1995 38.9739L46.1695 38.7836C45.9294 38.8606 45.5261 39.3817 45.6303 39.6128L45.7663 41.0265L46.4505 41.3936Z" fill="#F47C20"/>
<path d="M46.7994 41.3799L48.92 40.9313C49.0695 40.8996 49.1919 40.7999 49.2553 40.6595L49.4275 40.2698C49.5589 39.9707 49.3595 39.6309 49.0333 39.6037L46.7949 39.4043C46.5275 39.3817 46.2919 39.5856 46.2783 39.8529L46.2239 40.8906C46.2103 41.2032 46.4958 41.4479 46.7994 41.3799Z" fill="#F37021"/>
<g opacity="0.2">
<path opacity="0.2" d="M51.2536 45.7345C51.4711 45.8206 51.4303 46.1922 52.5722 46.1332C53.7141 46.0743 54.7517 45.7707 55.0734 45.1772C55.2864 44.7784 54.353 44.7286 54.2805 44.8554C53.8908 45.5623 52.69 45.0276 52.1735 45.0684C51.3035 45.1364 50.9364 45.6076 51.2536 45.7345Z" fill="#434343"/>
</g>
<path d="M51.9559 45.7028L54.6384 45.0321L54.8197 44.0398L54.0494 43.4235C53.9497 43.342 53.8319 43.2967 53.705 43.2831L51.4122 43.632C51.172 43.709 50.7688 44.2301 50.873 44.4612L51.2672 45.3357L51.9559 45.7028Z" fill="#F47C20"/>
<path d="M52.3094 45.6892L54.43 45.2406C54.5795 45.2088 54.7019 45.1092 54.7653 44.9687L54.9375 44.579C55.0689 44.2799 54.8695 43.9401 54.5433 43.9129L51.9877 44.0806C51.7203 44.0579 51.4847 44.2618 51.4711 44.5292L51.7294 45.1998C51.7203 45.5124 52.0013 45.7571 52.3094 45.6892Z" fill="#F37021"/>
<g opacity="0.2">
<path opacity="0.2" d="M46.7495 47.5244C46.532 47.6104 46.5728 47.982 45.4309 47.9231C44.2891 47.8642 43.2514 47.5606 42.9297 46.967C42.7167 46.5683 43.6501 46.5184 43.7226 46.6453C44.1123 47.3522 45.3131 46.8175 45.8297 46.8583C46.6997 46.9262 47.0667 47.3975 46.7495 47.5244Z" fill="#434343"/>
</g>
<path d="M46.0472 47.4881L43.3647 46.8175L43.1834 45.8251L43.9538 45.2089C44.0534 45.1273 44.1713 45.082 44.2981 45.0684L46.5909 45.4173C46.8311 45.4944 47.2344 46.0155 47.1302 46.2465L46.7359 47.1211L46.0472 47.4881Z" fill="#F47C20"/>
<path d="M45.6937 47.479L43.5731 47.0304C43.4236 46.9987 43.3012 46.899 43.2378 46.7585L43.0656 46.3689C42.9342 46.0698 43.1336 45.7299 43.4598 45.7028L46.0155 45.8704C46.2828 45.8478 46.5184 46.0517 46.532 46.319L46.2737 46.9896C46.2828 47.3023 46.0019 47.5424 45.6937 47.479Z" fill="#F37021"/>
<path d="M43.5686 37.9725C43.6728 38.1764 43.9764 38.3214 43.9764 38.3214L45.1319 38.0948C45.1319 38.0948 45.2587 37.9906 45.3131 37.9272C45.508 37.6961 45.0141 36.5134 44.3842 36.7989C43.7544 37.0843 43.3828 37.6054 43.5686 37.9725Z" fill="#FCB316"/>
<path d="M44.0932 37.9816C44.3192 37.9165 44.4822 37.7935 44.4573 37.7069C44.4324 37.6204 44.2289 37.603 44.0028 37.6681C43.7768 37.7333 43.6138 37.8562 43.6387 37.9428C43.6637 38.0294 43.8671 38.0468 44.0932 37.9816Z" fill="#F78F1E"/>
<path d="M49.8308 41.0764C49.4683 40.7501 49.1194 40.9223 48.7523 41.1307C48.5348 41.2531 48.3173 41.4661 48.2222 41.7515C48.127 42.037 49.0106 42.9659 49.4955 42.4675C49.9803 41.969 50.1389 41.3482 49.8308 41.0764Z" fill="#FCB316"/>
<path d="M49.5318 41.514C49.7191 41.3717 49.8267 41.1981 49.7722 41.1264C49.7177 41.0547 49.5217 41.1119 49.3344 41.2543C49.1471 41.3966 49.0395 41.5702 49.094 41.6419C49.1486 41.7136 49.3446 41.6564 49.5318 41.514Z" fill="#F78F1E"/>
<path d="M51.6478 47.5425C51.811 48.0001 52.1961 48.0228 52.6175 48.0182C52.8667 48.0137 53.1613 47.9367 53.3833 47.7328C53.6053 47.5289 53.2791 46.2918 52.6175 46.4912C51.9514 46.6906 51.5119 47.1528 51.6478 47.5425Z" fill="#FCB316"/>
<path d="M52.1654 47.6268C52.3982 47.5927 52.5763 47.4929 52.5633 47.4037C52.5502 47.3146 52.351 47.2699 52.1182 47.304C51.8854 47.338 51.7073 47.4379 51.7204 47.5271C51.7334 47.6162 51.9327 47.6609 52.1654 47.6268Z" fill="#F78F1E"/>
<path d="M41.1942 45.1092C41.3573 45.5668 41.7425 45.5895 42.1639 45.5849C42.4131 45.5804 42.7077 45.5034 42.9297 45.2995C43.1517 45.0956 42.8255 43.8585 42.1639 44.0579C41.4978 44.2528 41.0583 44.7195 41.1942 45.1092Z" fill="#FCB316"/>
<path d="M41.7119 45.1929C41.9447 45.1588 42.1228 45.059 42.1097 44.9698C42.0967 44.8807 41.8974 44.836 41.6647 44.8701C41.4319 44.9041 41.2538 45.004 41.2668 45.0932C41.2799 45.1823 41.4791 45.227 41.7119 45.1929Z" fill="#F78F1E"/>
<path opacity="0.2" d="M53.1295 37.0843C53.5274 37.0843 53.85 36.9119 53.85 36.6992C53.85 36.4865 53.5274 36.314 53.1295 36.314C52.7316 36.314 52.4091 36.4865 52.4091 36.6992C52.4091 36.9119 52.7316 37.0843 53.1295 37.0843Z" fill="#434343"/>
<path d="M53.1205 36.6765C53.5184 36.6765 53.8409 36.354 53.8409 35.9561C53.8409 35.5582 53.5184 35.2356 53.1205 35.2356C52.7226 35.2356 52.4 35.5582 52.4 35.9561C52.4 36.354 52.7226 36.6765 53.1205 36.6765Z" fill="url(#paint17_radial_1305_249)"/>
<path opacity="0.2" d="M43.7272 41.7017C44.1251 41.7017 44.4476 41.5293 44.4476 41.3166C44.4476 41.1038 44.1251 40.9314 43.7272 40.9314C43.3293 40.9314 43.0067 41.1038 43.0067 41.3166C43.0067 41.5293 43.3293 41.7017 43.7272 41.7017Z" fill="#434343"/>
<path d="M43.7181 41.2894C44.116 41.2894 44.4386 40.9668 44.4386 40.5689C44.4386 40.171 44.116 39.8484 43.7181 39.8484C43.3202 39.8484 42.9977 40.171 42.9977 40.5689C42.9977 40.9668 43.3202 41.2894 43.7181 41.2894Z" fill="url(#paint18_radial_1305_249)"/>
<path opacity="0.2" d="M51.7113 42.7575C52.1092 42.7575 52.4317 42.5851 52.4317 42.3723C52.4317 42.1596 52.1092 41.9872 51.7113 41.9872C51.3133 41.9872 50.9908 42.1596 50.9908 42.3723C50.9908 42.5851 51.3133 42.7575 51.7113 42.7575Z" fill="#434343"/>
<path d="M51.7022 42.3497C52.1001 42.3497 52.4227 42.0271 52.4227 41.6292C52.4227 41.2313 52.1001 40.9088 51.7022 40.9088C51.3043 40.9088 50.9817 41.2313 50.9817 41.6292C50.9817 42.0271 51.3043 42.3497 51.7022 42.3497Z" fill="url(#paint19_radial_1305_249)"/>
<path opacity="0.2" d="M49.0559 47.6512C49.4538 47.6512 49.7764 47.4788 49.7764 47.2661C49.7764 47.0534 49.4538 46.8809 49.0559 46.8809C48.658 46.8809 48.3355 47.0534 48.3355 47.2661C48.3355 47.4788 48.658 47.6512 49.0559 47.6512Z" fill="#434343"/>
<path d="M49.0469 47.2434C49.4448 47.2434 49.7674 46.9209 49.7674 46.523C49.7674 46.1251 49.4448 45.8025 49.0469 45.8025C48.649 45.8025 48.3264 46.1251 48.3264 46.523C48.3264 46.9209 48.649 47.2434 49.0469 47.2434Z" fill="url(#paint20_radial_1305_249)"/>
<path opacity="0.2" d="M53.2247 39.341C53.2247 39.6445 52.8667 39.7805 51.9469 39.6808C51.2944 39.6128 51.0633 39.6989 51.0633 39.3953C51.0633 39.0917 51.0406 38.3305 51.9741 38.2081C52.9075 38.0903 53.2247 38.8878 53.2247 39.341Z" fill="#434343"/>
<path d="M52.0284 38.8788C52.5586 38.8969 53.1114 39.4406 53.1341 39.4044C53.1884 39.3228 53.0933 38.5163 52.9528 38.4302L52.0375 37.8864C51.9288 37.823 51.7883 37.8547 51.7158 37.9635L51.1675 38.7021L51.1902 39.4633C51.4756 39.5358 51.4983 38.8607 52.0284 38.8788Z" fill="#AF5C2B"/>
<path d="M51.8698 39.4724C51.9378 39.495 52.2142 39.5856 52.3864 39.572C52.6401 39.5494 52.6719 39.4633 52.9573 39.486C53.2247 39.5086 53.1522 39.2956 52.9664 39.1869L52.0511 38.6431C51.9423 38.5797 51.8019 38.6114 51.7294 38.7202L51.1811 39.4588C51.5753 39.6038 51.6523 39.3953 51.8698 39.4724Z" fill="#8B4A22"/>
<path d="M51.9151 38.5707H51.9061C51.8381 38.5707 51.7883 38.5163 51.7883 38.4529V38.0088C51.7883 37.9408 51.8426 37.891 51.9061 37.891H51.9151C51.9831 37.891 52.033 37.9454 52.033 38.0088V38.4529C52.0375 38.5163 51.9831 38.5707 51.9151 38.5707Z" fill="#C56E39"/>
<path opacity="0.2" d="M49.8534 37.61C49.8534 37.9136 49.4955 38.0495 48.5756 37.9498C47.9231 37.8819 47.692 37.968 47.692 37.6644C47.692 37.3608 47.6694 36.5995 48.6028 36.4772C49.5362 36.3594 49.8534 37.1569 49.8534 37.61Z" fill="#434343"/>
<path d="M48.6572 37.1478C49.1874 37.1659 49.7402 37.7097 49.7628 37.6734C49.8172 37.5919 49.722 36.7853 49.5816 36.6992L48.6663 36.1555C48.5575 36.092 48.417 36.1238 48.3445 36.2325L47.7963 36.9711L47.8189 37.7323C48.1044 37.8048 48.127 37.1297 48.6572 37.1478Z" fill="#AF5C2B"/>
<path d="M48.4986 37.7414C48.5666 37.7641 48.843 37.8547 49.0152 37.8411C49.2689 37.8184 49.3006 37.7323 49.5861 37.755C49.8534 37.7777 49.7809 37.5647 49.5952 37.4559L48.6798 36.9122C48.5711 36.8487 48.4306 36.8805 48.3581 36.9892L47.8098 37.7278C48.2086 37.8728 48.2811 37.6644 48.4986 37.7414Z" fill="#8B4A22"/>
<path d="M48.5484 36.8397H48.5394C48.4714 36.8397 48.4216 36.7853 48.4216 36.7219V36.2778C48.4216 36.2099 48.4759 36.16 48.5394 36.16H48.5484C48.6164 36.16 48.6663 36.2144 48.6663 36.2778V36.7219C48.6663 36.7899 48.6119 36.8397 48.5484 36.8397Z" fill="#C56E39"/>
<path opacity="0.2" d="M46.242 43.5369C46.242 43.8405 45.8841 43.9764 44.9642 43.8767C44.3117 43.8088 44.0806 43.8949 44.0806 43.5913C44.0806 43.2877 44.058 42.5264 44.9914 42.4041C45.9248 42.2908 46.242 43.0883 46.242 43.5369Z" fill="#434343"/>
<path d="M45.0412 43.0747C45.5714 43.0928 46.1242 43.6366 46.1469 43.6003C46.2012 43.5188 46.1061 42.7122 45.9656 42.6261L45.0503 42.0824C44.9416 42.0189 44.8011 42.0506 44.7286 42.1594L44.1803 42.898L44.203 43.6592C44.493 43.7317 44.5111 43.0566 45.0412 43.0747Z" fill="#AF5C2B"/>
<path d="M44.8872 43.6683C44.9551 43.6909 45.2316 43.7816 45.4037 43.768C45.6575 43.7453 45.6892 43.6592 45.9747 43.6819C46.242 43.7045 46.1695 43.4916 45.9837 43.3828L45.0684 42.8391C44.9597 42.7756 44.8192 42.8073 44.7467 42.9161L44.1984 43.6547C44.5926 43.7997 44.6697 43.5913 44.8872 43.6683Z" fill="#8B4A22"/>
<path d="M44.9325 42.7711H44.9234C44.8554 42.7711 44.8056 42.7167 44.8056 42.6533V42.2092C44.8056 42.1413 44.86 42.0914 44.9234 42.0914H44.9325C45.0004 42.0914 45.0503 42.1458 45.0503 42.2092V42.6533C45.0503 42.7167 45.0004 42.7711 44.9325 42.7711Z" fill="#C56E39"/>
<path opacity="0.2" d="M52.1508 19.3626C52.1508 17.2692 49.3414 15.5745 45.8705 15.5745C42.4041 15.5745 39.5902 17.2692 39.5902 19.3626C39.5902 20.1194 39.9617 20.8217 40.5961 21.4153C39.5358 22.3487 38.8788 23.6084 38.8788 24.995C38.8788 27.8769 41.6881 30.215 45.1591 30.215C48.6255 30.215 51.4394 27.8769 51.4394 24.995C51.4394 23.8939 51.027 22.8744 50.3292 22.0316C51.453 21.3473 52.1508 20.4048 52.1508 19.3626Z" fill="#212121"/>
<path d="M45.4128 30.3057C48.3884 30.3057 50.8005 28.2181 50.8005 25.643C50.8005 23.0679 48.3884 20.9803 45.4128 20.9803C42.4373 20.9803 40.0252 23.0679 40.0252 25.643C40.0252 28.2181 42.4373 30.3057 45.4128 30.3057Z" fill="#1E5F30"/>
<path d="M45.4128 29.8072C48.3884 29.8072 50.8005 27.7196 50.8005 25.1445C50.8005 22.5694 48.3884 20.4819 45.4128 20.4819C42.4373 20.4819 40.0252 22.5694 40.0252 25.1445C40.0252 27.7196 42.4373 29.8072 45.4128 29.8072Z" fill="#4D803B"/>
<path d="M45.4128 28.8692C47.8628 28.8692 49.8489 27.1509 49.8489 25.0313C49.8489 22.9116 47.8628 21.1933 45.4128 21.1933C42.9629 21.1933 40.9767 22.9116 40.9767 25.0313C40.9767 27.1509 42.9629 28.8692 45.4128 28.8692Z" fill="#B7CE7A"/>
<path d="M45.4128 27.7727C47.1621 27.7727 48.5802 26.5453 48.5802 25.0313C48.5802 23.5172 47.1621 22.2899 45.4128 22.2899C43.6636 22.2899 42.2455 23.5172 42.2455 25.0313C42.2455 26.5453 43.6636 27.7727 45.4128 27.7727Z" fill="#B3CA62"/>
<path d="M51.0542 8.76407C51.9378 10.2005 51.2264 12.2577 49.4638 13.3588C47.7011 14.4598 45.5533 14.1925 44.6652 12.7561C43.7816 11.3197 44.493 9.26251 46.2556 8.16141C48.0183 7.06032 50.1706 7.32766 51.0542 8.76407Z" fill="#568B3E"/>
<path opacity="0.2" d="M51.6388 24.0706C51.1448 25.5251 48.4533 25.9239 45.6303 24.9542C42.8028 23.9845 40.9133 22.018 41.4072 20.5634C41.9011 19.1089 44.5927 18.7101 47.4156 19.6798C50.2386 20.6495 52.1327 22.6161 51.6388 24.0706Z" fill="#212121"/>
<path d="M47.6377 13.327C46.8764 10.4542 44.4794 8.60547 42.2817 9.19453C40.0841 9.78359 38.9196 12.593 39.6853 15.4613C40.4466 18.3341 42.8436 20.1828 45.0413 19.5938C47.2389 19.0047 48.3989 16.1998 47.6377 13.327Z" fill="#1E5F30"/>
<path d="M45.4672 19.4805C43.2695 20.0695 40.8725 18.2208 40.1113 15.348C39.35 12.4752 40.5145 9.67031 42.7077 9.08125C44.9008 8.49219 47.3023 10.3409 48.0636 13.2138C48.8294 16.0866 47.6649 18.8914 45.4672 19.4805Z" fill="#568B3E"/>
<path d="M45.3177 18.538C43.5097 19.0228 41.5341 17.5003 40.9088 15.135C40.2834 12.7697 41.2395 10.4633 43.0475 9.97393C44.8555 9.48456 46.8311 11.0116 47.4564 13.3769C48.0817 15.7422 47.1256 18.0532 45.3177 18.538Z" fill="#CEE298"/>
<path d="M44.9914 17.3146C43.7 17.6635 42.2908 16.576 41.8422 14.8858C41.3936 13.1956 42.0778 11.5463 43.3692 11.2019C44.6606 10.8575 46.0698 11.9405 46.5184 13.6306C46.967 15.3163 46.2828 16.9656 44.9914 17.3146Z" fill="#C4DC72"/>
<path d="M50.6237 8.68703C48.0998 7.62672 45.3539 8.4514 44.493 10.5267C43.632 12.602 44.9823 15.1441 47.5063 16.2044C50.0302 17.2647 52.7761 16.44 53.637 14.3647C54.498 12.2894 53.1522 9.74734 50.6237 8.68703Z" fill="#1E5F30"/>
<path d="M53.8092 13.9614C52.9483 16.0367 50.2069 16.8614 47.6784 15.8011C45.1545 14.7408 43.8042 12.1988 44.6652 10.1235C45.5261 8.04814 48.2675 7.22346 50.7959 8.28377C53.3198 9.34408 54.6702 11.8861 53.8092 13.9614Z" fill="#568B3E"/>
<path d="M53.0344 13.5355C52.3275 15.2437 50.0664 15.9234 47.9866 15.0489C45.9067 14.1789 44.7966 12.0855 45.5034 10.3772C46.2103 8.6689 48.4714 7.98922 50.5513 8.86375C52.6311 9.73828 53.7458 11.8272 53.0344 13.5355Z" fill="#CEE298"/>
<path d="M52.1915 13.1821C51.6433 14.5097 49.8897 15.0353 48.2765 14.3556C46.6634 13.6805 45.8025 12.0538 46.3508 10.7306C46.899 9.40752 48.6526 8.87736 50.2658 9.55705C51.8789 10.2322 52.7398 11.8544 52.1915 13.1821Z" fill="#C4DC72"/>
<path d="M51.0996 14.7634C48.408 15.2709 46.5638 17.4731 46.9761 19.6843C47.3885 21.8956 49.9033 23.2776 52.5903 22.7701C55.2819 22.2626 57.1261 20.0604 56.7138 17.8492C56.3014 15.6379 53.7911 14.2559 51.0996 14.7634Z" fill="#1E5F30"/>
<path d="M56.6367 17.165C57.0491 19.3762 55.2003 21.5784 52.5133 22.0859C49.8217 22.5934 47.3114 21.2114 46.8991 19.0001C46.4867 16.7889 48.3355 14.5867 51.0225 14.0792C53.7096 13.5717 56.2244 14.9537 56.6367 17.165Z" fill="#4D803B"/>
<path d="M55.7577 17.233C56.0975 19.0545 54.575 20.867 52.3638 21.2839C50.148 21.7008 48.0817 20.5634 47.7419 18.7464C47.4021 16.9248 48.9246 15.1123 51.1358 14.6955C53.3471 14.2741 55.4178 15.4114 55.7577 17.233Z" fill="#B7CE7A"/>
<path d="M55.0508 17.3644C55.3317 18.8642 54.0766 20.3595 52.255 20.6994C50.4335 21.0437 48.7252 20.1058 48.4488 18.6059C48.1678 17.1061 49.423 15.6108 51.2445 15.2709C53.0661 14.9265 54.7699 15.8645 55.0508 17.3644Z" fill="#B3CA62"/>
<path opacity="0.2" d="M34.5288 20.9033C37.9973 20.9033 40.8091 19.3371 40.8091 17.4052C40.8091 15.4732 37.9973 13.907 34.5288 13.907C31.0602 13.907 28.2484 15.4732 28.2484 17.4052C28.2484 19.3371 31.0602 20.9033 34.5288 20.9033Z" fill="#212121"/>
<path d="M46.8855 16.2407C44.135 15.0942 41.3075 15.6199 40.5689 17.4142C39.8303 19.2086 41.4616 21.5921 44.2075 22.7385C46.958 23.8849 49.7855 23.3592 50.5241 21.5649C51.2627 19.7705 49.6314 17.3871 46.8855 16.2407Z" fill="#1E5F30"/>
<path d="M50.6963 20.713C49.9577 22.5074 47.1302 23.033 44.3797 21.8866C41.6292 20.7402 40.0025 18.3568 40.7411 16.5624C41.4797 14.768 44.3072 14.2424 47.0577 15.3888C49.8081 16.5352 51.4348 18.9186 50.6963 20.713Z" fill="#568B3E"/>
<path d="M49.8489 20.2689C49.2417 21.7461 46.9127 22.1766 44.6516 21.2341C42.3905 20.2916 41.0492 18.3295 41.6564 16.8524C42.2636 15.3752 44.5927 14.9447 46.8538 15.8872C49.1148 16.8342 50.4561 18.7963 49.8489 20.2689Z" fill="#F9EBBB"/>
<path d="M49.065 19.9427C48.5711 21.1389 46.6906 21.4878 44.86 20.722C43.0294 19.9608 41.9464 18.3703 42.4358 17.1786C42.9297 15.9824 44.8102 15.6335 46.6408 16.3992C48.4714 17.165 49.5589 18.751 49.065 19.9427Z" fill="#DEE67C"/>
<path d="M51.0542 21.8866C48.5258 22.163 46.6181 23.7263 46.7994 25.3757C46.9761 27.0251 49.1738 28.1397 51.7022 27.8633C54.2306 27.5869 56.1383 26.0236 55.957 24.3743C55.7803 22.7249 53.5827 21.6102 51.0542 21.8866Z" fill="#1E5F30"/>
<path opacity="0.2" d="M56.0613 24.9226C56.238 26.5719 54.3349 28.1352 51.8064 28.4116C49.278 28.688 47.0803 27.5779 46.9036 25.924C46.7269 24.2746 48.63 22.7113 51.1585 22.4349C53.6869 22.1585 55.88 23.2732 56.0613 24.9226Z" fill="#212121"/>
<path d="M55.8664 23.8713C56.0431 25.5207 54.14 27.0839 51.6116 27.3603C49.0831 27.6367 46.8855 26.5266 46.7088 24.8727C46.532 23.2233 48.4352 21.66 50.9636 21.3836C53.492 21.1072 55.6897 22.2219 55.8664 23.8713Z" fill="#568B3E"/>
<path d="M55.0508 23.8894C55.1958 25.2488 53.628 26.5357 51.5481 26.7623C49.4683 26.9888 47.6603 26.0735 47.5108 24.7141C47.3658 23.3548 48.9336 22.0679 51.0135 21.8413C53.0933 21.6148 54.9013 22.5301 55.0508 23.8894Z" fill="#F9EBBB"/>
<path d="M54.3303 23.971C54.4481 25.0721 53.1794 26.1097 51.4983 26.2955C49.8127 26.4813 48.3536 25.7381 48.2313 24.6416C48.1135 23.5405 49.3822 22.5028 51.0633 22.3171C52.7489 22.1313 54.208 22.8699 54.3303 23.971Z" fill="#DEE67C"/>
<path d="M29.7936 17.3463C28.1669 15.4885 28.1986 13.4177 28.1623 12.8241C28.0355 10.7125 29.1955 10.5675 31.6242 9.58877C34.7372 8.33361 41.3573 7.76721 41.5522 10.6717C41.8195 14.6683 40.1248 17.4686 36.4002 18.9231C33.627 20.0016 31.2662 19.0228 29.7936 17.3463Z" fill="#CCB795"/>
<path d="M28.5838 14.7272C27.2425 12.1444 28.5158 9.11298 31.6288 7.85782C34.7417 6.60266 40.2336 7.11016 41.312 9.81532C42.3905 12.5205 38.8335 16.7663 35.5845 17.5909C32.1181 18.4655 29.7936 17.0563 28.5838 14.7272Z" fill="url(#paint21_radial_1305_249)"/>
<path d="M30.5005 13.6623C29.8389 12.0039 30.4597 10.2186 32.3674 9.44827C34.275 8.67796 36.4183 9.16733 37.0799 10.8258C37.7414 12.4842 36.7038 14.6456 34.7916 15.4159C32.8839 16.1862 31.1575 15.3208 30.5005 13.6623Z" fill="url(#paint22_radial_1305_249)"/>
<path opacity="0.2" d="M34.5288 31.0352C37.9973 31.0352 40.8091 29.469 40.8091 27.5371C40.8091 25.6051 37.9973 24.0389 34.5288 24.0389C31.0602 24.0389 28.2484 25.6051 28.2484 27.5371C28.2484 29.469 31.0602 31.0352 34.5288 31.0352Z" fill="#212121"/>
<path d="M29.7936 27.8225C28.1669 25.9647 28.1986 23.8939 28.1623 23.3003C28.0355 21.1888 29.1955 21.0438 31.6242 20.065C34.7372 18.8099 41.3573 18.2435 41.5522 21.148C41.8195 25.1446 40.1248 27.9449 36.4002 29.3994C33.627 30.4778 31.2662 29.4991 29.7936 27.8225Z" fill="#CCB795"/>
<path d="M28.5838 25.2035C27.2425 22.6206 28.5158 19.5892 31.6288 18.3341C34.7417 17.0789 40.2336 17.5864 41.312 20.2916C42.3905 22.9967 38.8335 27.2425 35.5845 28.0672C32.1181 28.9417 29.7936 27.537 28.5838 25.2035Z" fill="url(#paint23_radial_1305_249)"/>
<path d="M30.5005 24.1386C29.8389 22.4802 30.4597 20.6948 32.3674 19.9245C34.275 19.1542 36.4183 19.6436 37.0799 21.302C37.7414 22.9605 36.7038 25.1219 34.7916 25.8922C32.8839 26.6625 31.1575 25.797 30.5005 24.1386Z" fill="url(#paint24_radial_1305_249)"/>
<defs>
<linearGradient id="paint0_linear_1305_249" x1="8.91378" y1="5.3939" x2="56.1894" y2="52.6696" gradientUnits="userSpaceOnUse">
<stop offset="0.2239" stop-color="#434343"/>
<stop offset="0.5619" stop-color="#323535"/>
<stop offset="0.8997" stop-color="#404141"/>
</linearGradient>
<radialGradient id="paint1_radial_1305_249" cx="0" cy="0" r="1" gradientUnits="userSpaceOnUse" gradientTransform="translate(22.6582 31.8342) scale(19.2064)">
<stop offset="0.4088" stop-color="white"/>
<stop offset="0.724" stop-color="#ECEFF0"/>
<stop offset="0.9654" stop-color="#D0D8DC"/>
</radialGradient>
<radialGradient id="paint2_radial_1305_249" cx="0" cy="0" r="1" gradientUnits="userSpaceOnUse" gradientTransform="translate(22.1753 34.7565) scale(17.7642 17.7642)">
<stop offset="0.2277" stop-color="white"/>
<stop offset="0.6304" stop-color="#ECEFF0"/>
<stop offset="0.9654" stop-color="#D0D8DC"/>
</radialGradient>
<radialGradient id="paint3_radial_1305_249" cx="0" cy="0" r="1" gradientUnits="userSpaceOnUse" gradientTransform="translate(22.6582 31.8342) scale(19.2064)">
<stop offset="0.4088" stop-color="white"/>
<stop offset="0.724" stop-color="#ECEFF0"/>
<stop offset="0.9654" stop-color="#D0D8DC"/>
</radialGradient>
<radialGradient id="paint4_radial_1305_249" cx="0" cy="0" r="1" gradientUnits="userSpaceOnUse" gradientTransform="translate(22.2435 35.1095) scale(2.04183 2.33605)">
<stop offset="0.1384" stop-color="#F47C20"/>
<stop offset="0.8823" stop-color="#E45325"/>
</radialGradient>
<radialGradient id="paint5_radial_1305_249" cx="0" cy="0" r="1" gradientUnits="userSpaceOnUse" gradientTransform="translate(17.0763 10.0256) scale(7.31172 5.9469)">
<stop offset="0.0529" stop-color="#FFCB28"/>
<stop offset="1" stop-color="#F9A01B"/>
</radialGradient>
<linearGradient id="paint6_linear_1305_249" x1="17.0832" y1="19.3182" x2="17.0832" y2="11.5992" gradientUnits="userSpaceOnUse">
<stop offset="0.0303" stop-color="#F37021"/>
<stop offset="1" stop-color="#F9A01B"/>
</linearGradient>
<linearGradient id="paint7_linear_1305_249" x1="17.2359" y1="10.6438" x2="17.2359" y2="18.7651" gradientUnits="userSpaceOnUse">
<stop stop-color="#BFCA33"/>
<stop offset="0.8669" stop-color="#679F42"/>
</linearGradient>
<radialGradient id="paint8_radial_1305_249" cx="0" cy="0" r="1" gradientUnits="userSpaceOnUse" gradientTransform="translate(17.0763 15.4729) scale(7.31172 5.9469)">
<stop offset="0.0574" stop-color="#FFCB28"/>
<stop offset="1" stop-color="#F9A01B"/>
</radialGradient>
<linearGradient id="paint9_linear_1305_249" x1="17.0832" y1="24.7655" x2="17.0832" y2="17.0465" gradientUnits="userSpaceOnUse">
<stop offset="0.0303" stop-color="#F37021"/>
<stop offset="1" stop-color="#F9A01B"/>
</linearGradient>
<linearGradient id="paint10_linear_1305_249" x1="17.0273" y1="16.2424" x2="17.0273" y2="24.3637" gradientUnits="userSpaceOnUse">
<stop stop-color="#BFCA33"/>
<stop offset="0.8669" stop-color="#679F42"/>
</linearGradient>
<linearGradient id="paint11_linear_1305_249" x1="17.0244" y1="23.5334" x2="17.0244" y2="18.1447" gradientUnits="userSpaceOnUse">
<stop stop-color="#346A34" stop-opacity="0.6"/>
<stop offset="0.9267" stop-color="#679F42" stop-opacity="0"/>
</linearGradient>
<radialGradient id="paint12_radial_1305_249" cx="0" cy="0" r="1" gradientUnits="userSpaceOnUse" gradientTransform="translate(17.0763 21.4209) scale(7.31172 5.9469)">
<stop offset="0.0603" stop-color="#FFCB28"/>
<stop offset="1" stop-color="#F9A01B"/>
</radialGradient>
<linearGradient id="paint13_linear_1305_249" x1="17.0832" y1="28.5427" x2="17.0832" y2="22.9944" gradientUnits="userSpaceOnUse">
<stop offset="0.0303" stop-color="#F37021"/>
<stop offset="1" stop-color="#F9A01B"/>
</linearGradient>
<linearGradient id="paint14_linear_1305_249" x1="17.0258" y1="22.046" x2="17.0258" y2="30.1673" gradientUnits="userSpaceOnUse">
<stop stop-color="#BFCA33"/>
<stop offset="0.8669" stop-color="#679F42"/>
</linearGradient>
<linearGradient id="paint15_linear_1305_249" x1="16.8944" y1="28.116" x2="16.8944" y2="23.8543" gradientUnits="userSpaceOnUse">
<stop stop-color="#346A34" stop-opacity="0.6"/>
<stop offset="0.9267" stop-color="#679F42" stop-opacity="0"/>
</linearGradient>
<linearGradient id="paint16_linear_1305_249" x1="48.2154" y1="46.634" x2="48.2154" y2="32.0383" gradientUnits="userSpaceOnUse">
<stop stop-color="#8D401E"/>
<stop offset="0.6486" stop-color="#BB5B27"/>
</linearGradient>
<radialGradient id="paint17_radial_1305_249" cx="0" cy="0" r="1" gradientUnits="userSpaceOnUse" gradientTransform="translate(53.0047 35.8113) scale(0.720693 0.720695)">
<stop offset="0.2043" stop-color="#8BC249"/>
<stop offset="1" stop-color="#679F42"/>
</radialGradient>
<radialGradient id="paint18_radial_1305_249" cx="0" cy="0" r="1" gradientUnits="userSpaceOnUse" gradientTransform="translate(43.6021 40.4256) scale(0.720691 0.720695)">
<stop offset="0.2043" stop-color="#8BC249"/>
<stop offset="1" stop-color="#679F42"/>
</radialGradient>
<radialGradient id="paint19_radial_1305_249" cx="0" cy="0" r="1" gradientUnits="userSpaceOnUse" gradientTransform="translate(51.5887 41.4844) scale(0.720695)">
<stop offset="0.2043" stop-color="#8BC249"/>
<stop offset="1" stop-color="#679F42"/>
</radialGradient>
<radialGradient id="paint20_radial_1305_249" cx="0" cy="0" r="1" gradientUnits="userSpaceOnUse" gradientTransform="translate(48.9304 46.3781) scale(0.720699)">
<stop offset="0.2043" stop-color="#8BC249"/>
<stop offset="1" stop-color="#679F42"/>
</radialGradient>
<radialGradient id="paint21_radial_1305_249" cx="0" cy="0" r="1" gradientUnits="userSpaceOnUse" gradientTransform="translate(31.9028 9.87658) scale(11.9479 12.0231)">
<stop offset="0.4485" stop-color="#FFF3E1"/>
<stop offset="1" stop-color="#FFE0B2"/>
</radialGradient>
<radialGradient id="paint22_radial_1305_249" cx="0" cy="0" r="1" gradientUnits="userSpaceOnUse" gradientTransform="translate(33.8227 12.6765) scale(3.40261 3.42404)">
<stop stop-color="#F36E21"/>
<stop offset="1" stop-color="#FAAA43"/>
</radialGradient>
<radialGradient id="paint23_radial_1305_249" cx="0" cy="0" r="1" gradientUnits="userSpaceOnUse" gradientTransform="translate(31.9028 20.3533) scale(11.9479 12.0231)">
<stop offset="0.4485" stop-color="#FFF3E1"/>
<stop offset="1" stop-color="#FFE0B2"/>
</radialGradient>
<radialGradient id="paint24_radial_1305_249" cx="0" cy="0" r="1" gradientUnits="userSpaceOnUse" gradientTransform="translate(33.8227 23.1532) scale(3.40261 3.42404)">
<stop stop-color="#F36E21"/>
<stop offset="1" stop-color="#FAAA43"/>
</radialGradient>
</defs>
</svg>
